<svg width="91" height="91" viewBox="0 0 91 91" fill="none" xmlns="http://www.w3.org/2000/svg">
<path d="M40.538 38.5686L29.3293 22.937C29.199 22.7584 29.0279 22.6137 28.8303 22.515C28.6327 22.4162 28.4144 22.3664 28.1937 22.3695C27.9729 22.3662 27.7546 22.4158 27.5569 22.5143C27.3592 22.6127 27.1879 22.7571 27.0573 22.9354L15.847 38.5332C15.8207 38.5697 15.7964 38.6034 15.7738 38.6418C13.4575 42.6238 13.4853 47.459 15.8482 51.5797C17.0873 53.7686 18.8839 55.5889 21.0545 56.8547C23.2251 58.1205 25.692 58.7865 28.2035 58.7848C30.7149 58.783 33.1809 58.1135 35.3497 56.8446C37.5185 55.5757 39.3125 53.7529 40.5485 51.5622C42.8997 47.4506 42.9223 42.6338 40.6086 38.6775C40.5867 38.6404 40.5632 38.6037 40.538 38.5686ZM38.1193 50.1666C37.1283 51.929 35.6877 53.396 33.945 54.4172C32.2023 55.4385 30.22 55.9774 28.2012 55.9787C26.1823 55.98 24.1994 55.4438 22.4553 54.4249C20.7112 53.4059 19.2687 51.9409 18.2753 50.1797C16.4015 46.9119 16.3604 43.2443 18.1595 40.1068L28.19 26.1409L38.224 40.1501C40.0194 43.262 39.9821 46.9093 38.1193 50.1666Z" fill="#F1F1F1"/>
<path d="M34.9088 43.3562C34.5375 43.3562 34.1814 43.504 33.9189 43.7671C33.6563 44.0301 33.5088 44.3869 33.5088 44.759C33.5026 46.1895 32.9303 47.5592 31.9174 48.5673C30.9045 49.5754 29.5338 50.1397 28.1062 50.1362C27.7349 50.1362 27.3788 50.284 27.1163 50.5471C26.8537 50.8102 26.7062 51.167 26.7062 51.539C26.7062 51.9111 26.8537 52.2679 27.1163 52.531C27.3788 52.794 27.7349 52.9418 28.1062 52.9418C30.276 52.9441 32.3581 52.0839 33.8958 50.5498C35.4334 49.0158 36.3011 46.9332 36.3083 44.759C36.3083 44.387 36.1609 44.0303 35.8984 43.7672C35.636 43.5041 35.28 43.3563 34.9088 43.3562Z" fill="#F1F1F1"/>
<path d="M75.3511 63.118L62.2576 44.8551C62.1272 44.6765 61.9559 44.5318 61.7582 44.4331C61.5605 44.3344 61.342 44.2847 61.1212 44.288C60.9005 44.2846 60.6822 44.3342 60.4846 44.4325C60.2869 44.5309 60.1156 44.6753 59.985 44.8535L46.8904 63.0756C46.8643 63.1121 46.8398 63.1457 46.8173 63.1841C44.1544 67.7618 44.1871 73.3221 46.9047 78.0616C48.3315 80.5827 50.4004 82.6792 52.9002 84.1371C55.3999 85.595 58.241 86.3621 61.1333 86.3601C64.0256 86.3581 66.8656 85.587 69.3633 84.1255C71.861 82.6641 73.927 80.5647 75.3502 78.0416C78.0544 73.313 78.081 67.7746 75.4215 63.2269C75.3999 63.1906 75.3763 63.1531 75.3511 63.118ZM72.9214 76.6462C71.743 78.7409 70.0304 80.4842 67.9588 81.6979C65.8873 82.9115 63.5311 83.5519 61.1315 83.5535C58.7318 83.555 56.3748 82.9177 54.3017 81.7068C52.2286 80.4959 50.5137 78.7548 49.3326 76.6616C47.0988 72.7659 47.053 68.3913 49.2034 64.6502L61.1187 48.058L73.0377 64.6986C75.1837 68.412 75.142 72.7624 72.9214 76.6462Z" fill="#F1F1F1"/>
<path d="M68.9666 68.8093C68.5953 68.8093 68.2392 68.9571 67.9767 69.2202C67.7142 69.4833 67.5667 69.8401 67.5667 70.2121C67.5591 71.9456 66.8657 73.6053 65.6385 74.827C64.4113 76.0488 62.7505 76.733 61.0206 76.7293C60.6493 76.7293 60.2932 76.8771 60.0307 77.1402C59.7682 77.4033 59.6207 77.7601 59.6207 78.1321C59.6207 78.5041 59.7682 78.861 60.0307 79.124C60.2932 79.3871 60.6493 79.5349 61.0206 79.5349C63.4928 79.5377 65.8653 78.5577 67.6173 76.81C69.3694 75.0622 70.3581 72.6894 70.3665 70.2121C70.3665 69.8401 70.219 69.4833 69.9565 69.2202C69.6939 68.9571 69.3379 68.8093 68.9666 68.8093Z" fill="#F1F1F1"/>
<path d="M67.7766 42.0085C68.1479 42.0085 68.504 41.8607 68.7665 41.5976C69.0291 41.3346 69.1766 40.9778 69.1766 40.6057V37.4494C69.1766 37.0774 69.0291 36.7206 68.7665 36.4575C68.504 36.1944 68.1479 36.0466 67.7766 36.0466C67.4054 36.0466 67.0493 36.1944 66.7867 36.4575C66.5242 36.7206 66.3767 37.0774 66.3767 37.4494V40.6057C66.3767 40.9778 66.5242 41.3346 66.7867 41.5976C67.0493 41.8607 67.4054 42.0085 67.7766 42.0085ZM67.7766 32.189C68.1479 32.189 68.504 32.0412 68.7665 31.7781C69.0291 31.515 69.1766 31.1582 69.1766 30.7862V14.3034C69.1766 13.9313 69.0291 13.5745 68.7665 13.3115C68.504 13.0484 68.1479 12.9006 67.7766 12.9006C67.4054 12.9006 67.0493 13.0484 66.7867 13.3115C66.5242 13.5745 66.3767 13.9313 66.3767 14.3034V30.7862C66.3767 31.1582 66.5242 31.515 66.7867 31.7781C67.0493 32.0412 67.4054 32.189 67.7766 32.189ZM67.7766 10.4457C68.1479 10.4457 68.504 10.2979 68.7665 10.0348C69.0291 9.77175 69.1766 9.41495 69.1766 9.0429V6.06197C69.1766 5.68993 69.0291 5.33312 68.7665 5.07005C68.504 4.80697 68.1479 4.65918 67.7766 4.65918C67.4054 4.65918 67.0493 4.80697 66.7867 5.07005C66.5242 5.33312 66.3767 5.68993 66.3767 6.06197V9.0429C66.3767 9.41495 66.5242 9.77175 66.7867 10.0348C67.0493 10.2979 67.4054 10.4457 67.7766 10.4457Z" fill="#F1F1F1"/>
<path d="M59.552 38.5016C59.9233 38.5016 60.2794 38.3538 60.5419 38.0908C60.8045 37.8277 60.952 37.4709 60.952 37.0988V22.8956C60.952 22.5235 60.8045 22.1667 60.5419 21.9036C60.2794 21.6406 59.9233 21.4928 59.552 21.4928C59.1807 21.4928 58.8247 21.6406 58.5621 21.9036C58.2996 22.1667 58.1521 22.5235 58.1521 22.8956V37.0988C58.1521 37.4709 58.2996 37.8277 58.5621 38.0908C58.8247 38.3538 59.1807 38.5016 59.552 38.5016ZM59.552 17.4597C59.9233 17.4597 60.2794 17.3119 60.5419 17.0489C60.8045 16.7858 60.952 16.429 60.952 16.0569V11.1472C60.952 10.7751 60.8045 10.4183 60.5419 10.1553C60.2794 9.89218 59.9233 9.74438 59.552 9.74438C59.1807 9.74438 58.8247 9.89218 58.5621 10.1553C58.2996 10.4183 58.1521 10.7751 58.1521 11.1472V16.0569C58.1521 16.429 58.2996 16.7858 58.5621 17.0489C58.8247 17.3119 59.1807 17.4597 59.552 17.4597Z" fill="#F1F1F1"/>
<path d="M51.3275 42.1839C51.6988 42.1839 52.0548 42.0361 52.3174 41.773C52.5799 41.5099 52.7274 41.1531 52.7274 40.7811V33.5918C52.7274 33.2197 52.5799 32.8629 52.3174 32.5998C52.0548 32.3368 51.6988 32.189 51.3275 32.189C50.9562 32.189 50.6001 32.3368 50.3376 32.5998C50.075 32.8629 49.9276 33.2197 49.9276 33.5918V40.7811C49.9276 41.1531 50.075 41.5099 50.3376 41.773C50.6001 42.0361 50.9562 42.1839 51.3275 42.1839ZM51.3275 29.7341C51.6988 29.7341 52.0548 29.5863 52.3174 29.3232C52.5799 29.0601 52.7274 28.7033 52.7274 28.3313V9.91964C52.7274 9.54759 52.5799 9.19079 52.3174 8.92771C52.0548 8.66464 51.6988 8.51685 51.3275 8.51685C50.9562 8.51685 50.6001 8.66464 50.3376 8.92771C50.075 9.19079 49.9276 9.54759 49.9276 9.91964V28.3313C49.9276 28.7033 50.075 29.0601 50.3376 29.3232C50.6001 29.5863 50.9562 29.7341 51.3275 29.7341Z" fill="#F1F1F1"/>
<path d="M43.1029 18.6873C42.7316 18.6873 42.3755 18.8351 42.113 19.0981C41.8504 19.3612 41.7029 19.718 41.7029 20.0901V32.5398C41.7029 32.9119 41.8504 33.2687 42.113 33.5318C42.3755 33.7948 42.7316 33.9426 43.1029 33.9426C43.4742 33.9426 43.8302 33.7948 44.0928 33.5318C44.3553 33.2687 44.5028 32.9119 44.5028 32.5398V20.0901C44.5028 19.718 44.3553 19.3612 44.0928 19.0981C43.8302 18.8351 43.4742 18.6873 43.1029 18.6873ZM43.1029 6.41284C42.7316 6.41284 42.3755 6.56064 42.113 6.82371C41.8504 7.08678 41.7029 7.44359 41.7029 7.81563V14.8296C41.7029 15.2016 41.8504 15.5584 42.113 15.8215C42.3755 16.0846 42.7316 16.2324 43.1029 16.2324C43.4742 16.2324 43.8302 16.0846 44.0928 15.8215C44.3553 15.5584 44.5028 15.2016 44.5028 14.8296V7.81563C44.5028 7.44359 44.3553 7.08678 44.0928 6.82371C43.8302 6.56064 43.4742 6.41284 43.1029 6.41284Z" fill="#F1F1F1"/>
</svg>
