<svg width="75" height="79" viewBox="0 0 75 79" fill="none" xmlns="http://www.w3.org/2000/svg">
<g clip-path="url(#clip0_376_16129)">
<path d="M36.355 2.19874C38.6362 4.05154 40.0482 6.74997 40.3987 9.72689C40.4553 10.3743 40.4458 11.0209 40.441 11.6704C40.4402 11.9048 40.4402 11.9048 40.4394 12.1439C40.4382 12.4851 40.4367 12.8262 40.4348 13.1674C40.4318 13.7227 40.4296 14.2779 40.4277 14.8332C40.4256 15.4317 40.4235 16.0302 40.421 16.6287C40.4151 18.1123 40.412 19.5959 40.4108 21.0796C40.4107 21.2408 40.4107 21.2408 40.4105 21.4053C40.4096 22.403 40.409 23.4007 40.4084 24.3984C40.4079 25.0816 40.4074 25.7647 40.4067 26.4479C40.4066 26.5613 40.4065 26.6748 40.4064 26.7917C40.4045 28.6296 40.3969 30.4673 40.3872 32.3052C40.3774 34.1951 40.3743 36.0849 40.3773 37.9748C40.3789 39.1389 40.3753 40.3027 40.3648 41.4668C40.3574 42.3599 40.3592 43.2529 40.3644 44.146C40.3651 44.5112 40.3628 44.8764 40.3572 45.2415C40.264 47.4237 40.264 47.4237 41.1964 49.2829C41.5567 49.6307 41.9382 49.9297 42.334 50.2333C42.6384 50.574 42.9062 50.9302 43.1671 51.3075C43.2644 51.4475 43.2644 51.4475 43.3637 51.5903C45.935 55.433 46.771 60.1103 45.9961 64.682C45.1205 69.0089 42.7668 72.7622 39.2546 75.2843C36.4293 77.1967 33.4634 78.1279 30.0934 78.123C29.9968 78.1229 29.9003 78.1228 29.8009 78.1227C25.4521 78.1056 21.7211 76.3522 18.5302 73.2834C15.2952 69.8511 13.8122 65.5274 13.8468 60.7708C13.8828 59.2742 14.0641 57.8945 14.5019 56.4691C14.5333 56.3649 14.5647 56.2608 14.597 56.1536C15.2674 53.9935 16.2845 52.0994 17.7246 50.3854C17.8959 50.1799 17.8959 50.1799 18.0708 49.9701C18.9652 48.9168 18.9652 48.9168 19.3504 48.6575C19.6524 48.4357 19.6524 48.4357 19.7019 48.1026C19.7018 47.9259 19.7018 47.9259 19.7016 47.7456C19.7036 47.5414 19.7036 47.5414 19.7056 47.333C19.7041 47.1832 19.7025 47.0334 19.701 46.879C19.7016 46.72 19.7023 46.561 19.703 46.3972C19.7046 45.8616 19.7021 45.3261 19.6995 44.7906C19.6999 44.4076 19.7004 44.0247 19.7013 43.6417C19.7025 42.8154 19.702 41.9891 19.7 41.1627C19.6972 39.9655 19.6982 38.7683 19.7001 37.5711C19.7033 35.6255 19.7043 33.6799 19.7035 31.7342C19.7034 31.6177 19.7034 31.5012 19.7033 31.3812C19.7029 30.437 19.7024 29.4929 19.7019 28.5487C19.7015 27.726 19.7011 26.9034 19.7008 26.0807C19.7007 25.9649 19.7007 25.8491 19.7006 25.7298C19.6999 23.7937 19.7015 21.8577 19.7046 19.9216C19.7065 18.7288 19.7063 17.536 19.7034 16.3432C19.7013 15.4267 19.7022 14.5102 19.7042 13.5936C19.7045 13.2193 19.7038 12.845 19.7021 12.4708C19.6865 9.01047 20.1142 6.22261 22.4121 3.54142C22.5006 3.43516 22.5892 3.3289 22.6804 3.21941C26.2286 -0.767052 32.2489 -0.709647 36.355 2.19874ZM24.5544 5.81209C23.3141 7.45271 22.7822 9.10441 22.7961 11.1683C22.7954 11.3323 22.7948 11.4963 22.7941 11.6652C22.7924 12.2112 22.7938 12.7571 22.7952 13.303C22.7946 13.6958 22.7938 14.0887 22.7928 14.4815C22.7909 15.3256 22.7907 16.1696 22.7914 17.0137C22.7924 18.2351 22.7905 19.4564 22.7879 20.6778C22.7837 22.661 22.7812 24.6442 22.7799 26.6274C22.7799 26.7459 22.7798 26.8644 22.7797 26.9865C22.7791 27.9485 22.7786 28.9104 22.7781 29.8724C22.7776 30.7142 22.7772 31.556 22.7766 32.3978C22.7765 32.5756 22.7765 32.5756 22.7764 32.7571C22.7751 34.7339 22.7721 36.7107 22.7679 38.6876C22.7654 39.906 22.7644 41.1244 22.7655 42.3429C22.7662 43.2757 22.7646 44.2086 22.7623 45.1414C22.7617 45.5241 22.7619 45.9068 22.7629 46.2895C22.7641 46.8113 22.7626 47.333 22.7605 47.8548C22.7615 48.0068 22.7625 48.1587 22.7636 48.3152C22.7572 49.1199 22.7048 49.6922 22.2656 50.3854C21.9165 50.7151 21.9165 50.7151 21.5149 51.0223C19.1945 52.9268 17.4363 56.1179 17.0261 59.1698C16.6466 62.9874 17.3286 66.572 19.6317 69.6386C19.7753 69.82 19.7753 69.82 19.9218 70.0051C20.01 70.1214 20.0982 70.2377 20.1891 70.3574C22.4116 73.1391 25.7423 74.6537 29.1595 75.0146C33.0822 75.166 36.3036 73.7005 39.2618 71.1143C41.6025 68.8556 43.0736 65.3972 43.2129 62.0964C43.2187 61.9825 43.2246 61.8686 43.2306 61.7512C43.3312 57.9487 41.8266 54.5125 39.4111 51.7287C38.9195 51.2079 38.3923 50.7348 37.849 50.2731C37.5877 50.0255 37.5051 49.8561 37.4813 49.4891C37.4812 49.3708 37.481 49.2524 37.4809 49.1304C37.4804 48.9939 37.4798 48.8574 37.4793 48.7167C37.4794 48.5658 37.4796 48.4149 37.4797 48.2593C37.4793 48.0997 37.4789 47.9401 37.4785 47.7757C37.4773 47.2372 37.4771 46.6987 37.4769 46.1603C37.4762 45.7756 37.4754 45.3909 37.4746 45.0062C37.473 44.1758 37.4717 43.3453 37.4708 42.5148C37.4693 41.2007 37.4663 39.8865 37.463 38.5724C37.4619 38.1227 37.4608 37.673 37.4597 37.2232C37.4595 37.1108 37.4592 36.9984 37.4589 36.8826C37.4558 35.6021 37.4531 34.3217 37.4505 33.0412C37.4502 32.9241 37.45 32.807 37.4497 32.6864C37.4459 30.7932 37.4432 28.8999 37.4407 27.0067C37.4382 25.0615 37.4339 23.1163 37.4283 21.1711C37.4249 19.9724 37.4228 18.7736 37.4225 17.5749C37.4222 16.654 37.4195 15.733 37.4161 14.8121C37.415 14.4358 37.4147 14.0595 37.4152 13.6832C37.4187 10.5971 37.3565 7.91149 35.2026 5.55722C33.6349 3.97343 31.9461 3.34337 29.7978 3.34147C27.7795 3.37503 25.9395 4.27033 24.5544 5.81209Z" fill="#F1F1F1"/>
<path d="M31.2527 28.2686C32.0911 28.6366 32.5671 29.3223 32.959 30.1572C33.0937 30.7229 33.1252 31.2532 33.1287 31.8348C33.1301 32.0189 33.1315 32.2029 33.133 32.3925C33.1338 32.5932 33.1347 32.7938 33.1356 33.0005C33.137 33.2149 33.1384 33.4293 33.14 33.6437C33.1439 34.2246 33.147 34.8056 33.1499 35.3866C33.1531 35.9941 33.1571 36.6016 33.1611 37.2092C33.1684 38.3591 33.1749 39.5091 33.1813 40.6591C33.1885 41.9685 33.1966 43.2779 33.2047 44.5873C33.2213 47.2804 33.237 49.9736 33.252 52.6667C33.3736 52.7286 33.4952 52.7904 33.6205 52.8542C33.7795 52.9357 33.9385 53.0173 34.1024 53.1014C34.3392 53.2224 34.3392 53.2224 34.5807 53.3459C35.3325 53.7548 35.8832 54.3265 36.4746 54.9481C36.5679 55.0416 36.6612 55.1351 36.7573 55.2315C38.3543 56.9522 39.0141 59.3035 38.9785 61.6486C38.8617 64.2568 37.8037 66.4899 35.9865 68.2881C33.7367 70.2923 31.2853 70.663 28.418 70.4613C27.7443 70.3622 27.1345 70.1394 26.5137 69.853C26.3781 69.792 26.2425 69.731 26.1028 69.6682C23.7968 68.4982 22.4014 66.5174 21.5252 64.0652C20.9696 62.268 20.9823 59.8887 21.6797 58.142C21.746 57.974 21.8123 57.8059 21.8805 57.6328C22.7596 55.6213 24.0446 54.1878 25.9278 53.123C26.0222 53.0685 26.1166 53.014 26.2139 52.9578C26.522 52.7885 26.7466 52.6667 27.0996 52.6667C27.0991 52.5525 27.0985 52.4382 27.098 52.3205C27.085 49.5393 27.0753 46.758 27.0693 43.9767C27.0662 42.6317 27.0621 41.2867 27.0554 39.9418C27.0496 38.7693 27.0458 37.5969 27.0445 36.4244C27.0437 35.8037 27.0419 35.1831 27.0377 34.5624C27.0337 33.9778 27.0325 33.3932 27.0334 32.8086C27.0332 32.5945 27.032 32.3803 27.0298 32.1662C27.0167 30.8566 27.0384 29.9788 27.9144 28.9851C28.974 28.1391 29.9254 27.9275 31.2527 28.2686Z" fill="#F1F1F1"/>
<path d="M66.6504 5.06229C67.1244 5.60185 67.1759 5.99478 67.1499 6.70618C67.0898 7.03947 67.0898 7.03947 66.7877 7.49575C66.271 7.86104 65.954 7.91735 65.332 7.95202C64.8668 7.77795 64.8668 7.77795 64.4073 7.52426C62.8873 6.74957 61.4553 6.50161 59.7988 7.01274C59.0886 7.29286 58.4811 7.64444 57.8613 8.10411C57.7526 8.1543 57.6438 8.20449 57.5317 8.2562C57.1955 8.45567 57.1498 8.65588 56.9824 9.01666C56.7625 9.38713 56.539 9.75505 56.3141 10.1223C55.6395 11.4527 55.6179 13.0641 55.9061 14.5175C56.3955 16.0638 57.4017 17.3039 58.7402 18.1421C60.0639 18.8019 61.5282 19.0242 62.9631 18.6394C63.5703 18.4025 64.0966 18.0949 64.6362 17.7239C65.1366 17.3869 65.4576 17.2584 66.0644 17.3817C66.8817 17.8619 66.8817 17.8619 67.0898 18.2942C67.1846 18.9968 67.1709 19.5128 66.8335 20.1383C65.3838 21.6604 63.4532 22.1319 61.4685 22.163C58.8528 22.1461 56.7763 21.1119 54.9316 19.2067C54.8506 19.1279 54.7696 19.0491 54.6862 18.9679C54.1338 18.3774 53.7888 17.6707 53.4302 16.9444C53.3801 16.844 53.33 16.7436 53.2785 16.6402C52.3522 14.6854 52.2468 12.1324 52.8351 10.0528C52.9412 9.7554 53.0537 9.46035 53.1738 9.16875C53.2252 9.03719 53.2765 8.90564 53.3295 8.7701C54.235 6.6776 55.8854 5.05921 57.9071 4.15925C60.7665 3.03579 64.1261 3.03847 66.6504 5.06229Z" fill="#F1F1F1"/>
<path d="M49.0723 0.43301C50.1766 1.05783 50.9783 1.85266 51.416 3.08509C51.4506 3.18038 51.4851 3.27566 51.5207 3.37383C51.89 4.60163 51.7028 5.89259 51.1551 7.02995C50.4847 8.2078 49.5895 8.88834 48.3398 9.32082C46.8025 9.46694 45.5272 9.40173 44.2383 8.40828C43.1898 7.35272 42.7592 6.27334 42.7094 4.77711C42.7403 3.46914 43.0703 2.31471 43.9556 1.35209C45.3883 0.114478 47.3091 -0.291018 49.0723 0.43301ZM46.1426 3.69346C45.8175 4.19975 45.7384 4.47511 45.7798 5.07178C45.9078 5.61208 46.1449 5.82437 46.582 6.12691C46.9975 6.23302 47.3388 6.23576 47.7539 6.12691C48.1976 5.78388 48.4233 5.52598 48.6328 4.99574C48.6328 4.45967 48.4637 4.14459 48.1934 3.69346C47.4708 3.19332 46.844 3.20796 46.1426 3.69346Z" fill="#F1F1F1"/>
<path d="M9.57344 24.1987C9.70548 24.1968 9.83753 24.1948 9.97358 24.1928C10.1167 24.1917 10.2598 24.1906 10.4073 24.1894C10.5543 24.1882 10.7014 24.187 10.8529 24.1857C11.1647 24.1836 11.4765 24.182 11.7883 24.1808C12.2641 24.1782 12.7398 24.1715 13.2157 24.1648C13.5185 24.1632 13.8214 24.1619 14.1243 24.1609C14.2663 24.1582 14.4082 24.1556 14.5544 24.1528C15.4124 24.1557 15.899 24.2409 16.5528 24.834C16.806 25.3599 16.771 25.9321 16.6992 26.507C16.4365 26.9436 16.2623 27.1901 15.8203 27.4196C15.5984 27.4363 15.3758 27.4438 15.1533 27.4465C14.9457 27.4494 14.9457 27.4494 14.7339 27.4524C14.5839 27.4535 14.4339 27.4547 14.2794 27.4558C14.1255 27.457 13.9716 27.4583 13.813 27.4595C13.4868 27.4616 13.1606 27.4633 12.8344 27.4645C12.3357 27.4671 11.8372 27.4738 11.3385 27.4805C11.0218 27.482 10.7051 27.4833 10.3884 27.4843C10.1647 27.4883 10.1647 27.4883 9.93658 27.4924C8.89894 27.4891 8.89894 27.4891 8.33207 27.1303C7.86852 26.5932 7.85319 26.1832 7.85754 25.4822C7.94102 24.9367 8.23278 24.7019 8.6426 24.3777C8.98469 24.2002 9.19218 24.2036 9.57344 24.1987Z" fill="#F1F1F1"/>
<path d="M9.45616 15.8337C9.59454 15.8318 9.73293 15.8298 9.8755 15.8278C10.0255 15.8267 10.1755 15.8256 10.33 15.8244C10.4839 15.8232 10.6378 15.822 10.7964 15.8207C11.1226 15.8186 11.4488 15.817 11.775 15.8158C12.2737 15.8132 12.7722 15.8065 13.2709 15.7998C13.5876 15.7982 13.9043 15.7969 14.221 15.7959C14.4447 15.7919 14.4447 15.7919 14.6728 15.7878C15.7105 15.7911 15.7105 15.7911 16.2773 16.1499C16.7409 16.6871 16.7562 17.0971 16.7519 17.798C16.6684 18.3436 16.3766 18.5783 15.9668 18.9025C15.6247 19.0801 15.4172 19.0766 15.036 19.0815C14.9039 19.0835 14.7719 19.0854 14.6358 19.0874C14.4927 19.0885 14.3496 19.0897 14.2021 19.0908C14.0551 19.092 13.908 19.0933 13.7565 19.0945C13.4447 19.0966 13.1329 19.0983 12.8211 19.0995C12.3453 19.1021 11.8696 19.1088 11.3937 19.1155C11.0909 19.117 10.788 19.1183 10.4851 19.1193C10.3432 19.122 10.2012 19.1247 10.055 19.1274C9.19703 19.1246 8.71039 19.0393 8.05665 18.4462C7.80342 17.9204 7.83844 17.3482 7.91017 16.7732C8.34914 16.044 8.64994 15.8436 9.45616 15.8337Z" fill="#F1F1F1"/>
<path d="M9.4562 41.0808C9.59459 41.0789 9.73297 41.0769 9.87555 41.0749C10.0255 41.0738 10.1755 41.0727 10.3301 41.0715C10.484 41.0703 10.6379 41.069 10.7965 41.0678C11.1227 41.0657 11.4489 41.064 11.7751 41.0628C12.2737 41.0602 12.7723 41.0536 13.2709 41.0468C13.5876 41.0453 13.9043 41.044 14.2211 41.043C14.4447 41.039 14.4447 41.039 14.6729 41.0349C15.7105 41.0382 15.7105 41.0382 16.2774 41.397C16.7408 41.934 16.7568 42.3441 16.7513 43.0451C16.668 43.5955 16.3841 43.8272 15.9669 44.1496C15.5631 44.2893 15.3166 44.3223 14.8998 44.3262C14.7736 44.3276 14.6475 44.3291 14.5175 44.3306C14.3815 44.3312 14.2455 44.3319 14.1055 44.3325C13.8949 44.3338 13.8949 44.3338 13.6802 44.3352C13.383 44.3366 13.0859 44.3376 12.7888 44.3382C12.3355 44.3397 11.8823 44.3444 11.429 44.3492C11.1401 44.3502 10.8512 44.351 10.5624 44.3516C10.4273 44.3534 10.2922 44.3553 10.1531 44.3572C9.39472 44.3545 8.85386 44.297 8.20318 43.8454C7.81074 43.2342 7.80824 42.7387 7.91021 42.0203C8.34918 41.291 8.64999 41.0907 9.4562 41.0808Z" fill="#F1F1F1"/>
<path d="M9.84358 32.5662C10.0233 32.5641 10.0233 32.5641 10.2067 32.5618C10.335 32.5612 10.4633 32.5605 10.5956 32.5599C10.7289 32.559 10.8622 32.5581 10.9995 32.5572C11.2813 32.5558 11.5632 32.5548 11.845 32.5542C12.2742 32.5527 12.7033 32.548 13.1324 32.5432C13.4068 32.5422 13.6812 32.5414 13.9555 32.5408C14.083 32.539 14.2104 32.5371 14.3417 32.5352C15.1403 32.5382 15.7029 32.6435 16.4063 33.047C16.714 33.5263 16.7495 33.6892 16.7634 34.2447C16.7721 34.4371 16.7721 34.4371 16.7811 34.6333C16.6562 35.2302 16.4374 35.4175 15.9668 35.7847C15.418 35.8989 14.8772 35.8912 14.3189 35.8857C14.1591 35.8864 13.9993 35.8871 13.8347 35.8879C13.4973 35.8884 13.1599 35.887 12.8226 35.8838C12.3065 35.8797 11.7909 35.8838 11.2748 35.8886C10.9467 35.8881 10.6186 35.8872 10.2906 35.8857C10.1364 35.8872 9.98232 35.8887 9.82352 35.8903C8.75484 35.8726 8.75484 35.8726 8.1795 35.4219C7.80562 34.8698 7.8061 34.5209 7.83811 33.8651C7.94964 33.3054 8.20153 33.0655 8.64263 32.7428C9.04843 32.608 9.41896 32.5704 9.84358 32.5662Z" fill="#F1F1F1"/>
<path d="M10.2905 7.39456C10.5302 7.39347 10.5302 7.39347 10.7747 7.39235C11.1121 7.39184 11.4495 7.39323 11.7868 7.39641C12.3029 7.40048 12.8186 7.39645 13.3346 7.39159C13.6627 7.39209 13.9908 7.39306 14.3188 7.39456C14.55 7.39225 14.55 7.39225 14.7859 7.38989C15.8546 7.40766 15.8546 7.40766 16.4299 7.85833C16.7214 8.28885 16.7986 8.49574 16.7908 9.01646C16.7926 9.14194 16.7945 9.26741 16.7965 9.39669C16.648 9.97724 16.4301 10.1745 15.9668 10.5374C15.4179 10.6517 14.8771 10.6439 14.3188 10.6384C14.159 10.6391 13.9992 10.6398 13.8346 10.6406C13.4972 10.6411 13.1599 10.6397 12.8225 10.6365C12.3064 10.6324 11.7908 10.6365 11.2747 10.6413C10.9466 10.6408 10.6186 10.6399 10.2905 10.6384C10.1364 10.6399 9.98225 10.6414 9.82345 10.643C8.75478 10.6253 8.75478 10.6253 8.17943 10.1746C7.8879 9.74408 7.81075 9.53719 7.81859 9.01646C7.8167 8.89099 7.81481 8.76551 7.81287 8.63624C8.1499 7.31885 9.20108 7.38368 10.2905 7.39456Z" fill="#F1F1F1"/>
</g>
<defs>
<clipPath id="clip0_376_16129">
<rect width="75" height="77.8705" fill="white" transform="translate(0 0.195312)"/>
</clipPath>
</defs>
</svg>
