<svg width="76" height="57" viewBox="0 0 76 57" fill="none" xmlns="http://www.w3.org/2000/svg">
<path d="M74.8168 0.000947795H69.5095C69.3506 -0.00592911 69.1921 0.0252211 69.044 0.0924707C68.8958 0.15972 68.7611 0.261638 68.6482 0.391912C68.5353 0.522186 68.4465 0.678043 68.3875 0.849834C68.3284 1.02163 68.3003 1.20569 68.3048 1.39064V28.3173H65.7925V18.8525C65.7894 16.4197 64.9567 14.0877 63.4771 12.3685C61.9975 10.6494 59.9921 9.68365 57.901 9.68332H27.0545C26.7174 9.67906 26.3924 9.8286 26.149 10.0999C25.9056 10.3712 25.7632 10.7426 25.7524 11.1346V28.3173H20.0597C21.7783 27.6809 23.2446 26.3504 24.1939 24.5662C25.1432 22.782 25.5128 20.6617 25.236 18.5882C24.9592 16.5147 24.0542 14.6247 22.6845 13.2595C21.3149 11.8943 19.5707 11.144 17.7672 11.144C15.9636 11.144 14.2195 11.8943 12.8498 13.2595C11.4802 14.6247 10.5752 16.5147 10.2984 18.5882C10.0216 20.6617 10.3912 22.782 11.3405 24.5662C12.2898 26.3504 13.7561 27.6809 15.4747 28.3173H7.69515V1.39064C7.69971 1.20566 7.67158 1.02156 7.6125 0.849745C7.55342 0.677928 7.46465 0.522053 7.35169 0.391774C7.23873 0.261494 7.10398 0.159586 6.95579 0.0923592C6.8076 0.0251325 6.64912 -0.00598037 6.49018 0.000947795H1.1829C1.02516 -0.00539322 0.868 0.02633 0.721314 0.094121C0.574627 0.161912 0.441592 0.264303 0.330584 0.394845C0.219577 0.525388 0.133001 0.681256 0.076308 0.852636C0.0196148 1.02402 -0.00596784 1.2072 0.00117058 1.39064V55.6094C-0.00597058 55.7928 0.0196208 55.9761 0.0763328 56.1475C0.133045 56.3189 0.219649 56.4747 0.330691 56.6053C0.441732 56.7358 0.574806 56.8382 0.72153 56.906C0.868254 56.9738 1.02545 57.0055 1.18322 56.9991H6.49049C6.64941 57.0059 6.80785 56.9748 6.956 56.9075C7.10416 56.8403 7.23887 56.7384 7.3518 56.6081C7.46472 56.4778 7.55347 56.322 7.61253 56.1502C7.67159 55.9784 7.69971 55.7943 7.69515 55.6094V44.9418H68.3048V55.6094C68.3003 55.7943 68.3284 55.9784 68.3875 56.1503C68.4466 56.3221 68.5353 56.4779 68.6483 56.6082C68.7613 56.7385 68.896 56.8404 69.0442 56.9076C69.1924 56.9749 69.3509 57.006 69.5098 56.9991H74.8171C74.9748 57.0054 75.132 56.9737 75.2787 56.9059C75.4254 56.8381 75.5584 56.7357 75.6694 56.6052C75.7804 56.4746 75.867 56.3188 75.9237 56.1474C75.9804 55.976 76.006 55.7928 75.9988 55.6094V1.39064C76.006 1.20716 75.9804 1.02395 75.9237 0.852547C75.867 0.681141 75.7803 0.525254 75.6693 0.394706C75.5583 0.264158 75.4252 0.161776 75.2785 0.0940081C75.1317 0.0262402 74.9745 -0.00544484 74.8168 0.000947795ZM12.7215 19.9137C12.7215 18.7526 13.0174 17.6176 13.5719 16.6522C14.1263 15.6868 14.9144 14.9343 15.8364 14.49C16.7584 14.0457 17.7729 13.9294 18.7517 14.1559C19.7305 14.3824 20.6296 14.9416 21.3353 15.7626C22.041 16.5836 22.5215 17.6297 22.7162 18.7684C22.9109 19.9072 22.811 21.0876 22.4291 22.1603C22.0472 23.2331 21.4004 24.1499 20.5707 24.795C19.7409 25.4401 18.7653 25.7844 17.7674 25.7844C16.4296 25.7826 15.147 25.1635 14.2011 24.0629C13.2552 22.9624 12.7231 21.4702 12.7215 19.9137ZM5.18283 54.0761H2.51349V2.92393H5.18283V54.0761ZM28.2648 12.6063H57.901C59.326 12.6058 60.6928 13.2633 61.7014 14.4345C62.71 15.6056 63.2778 17.1946 63.2802 18.8525V28.3173H28.2648V12.6063ZM68.3048 31.2403V36.1728H7.69515V31.2403H68.3048ZM7.69515 42.0188V39.0958H68.3048V42.0188H7.69515ZM73.4865 54.0761H70.8172V2.92393H73.4865V54.0761Z" fill="#F1F1F1"/>
</svg>
