<svg width="50" height="59" viewBox="0 0 50 59" fill="none" xmlns="http://www.w3.org/2000/svg">
<path d="M22.9239 0.884261C20.0812 1.57341 17.6261 4.17208 17.1092 7.02918C16.377 11.0923 18.746 14.897 22.7516 16.1317C23.6418 16.4045 25.9533 16.4188 26.8578 16.1748C28.9109 15.6005 30.9353 13.9494 31.8542 12.1404C33.3904 9.08227 32.8879 5.62216 30.5333 3.13835C28.5807 1.05655 25.7092 0.209469 22.9239 0.884261ZM27.145 3.124C30.9497 4.88994 31.8972 9.5417 29.0688 12.5711C27.8054 13.9207 25.6949 14.6385 23.9433 14.3227C21.962 13.9494 20.354 12.729 19.5213 10.92C18.0281 7.74704 19.7366 3.99979 23.1967 2.85121C24.1587 2.53535 26.1974 2.67892 27.145 3.124Z" fill="#032B79"/>
<path d="M16.0884 17.7954C14.9973 18.0251 13.8487 18.6856 13.1883 19.4609C12.6714 20.0639 7.47405 28.4342 6.64133 30.0135C6.31111 30.6308 6.25368 30.9036 6.25368 31.9517C6.25368 32.9998 6.31111 33.2726 6.64133 33.9043C6.85669 34.3207 7.30176 34.8806 7.63198 35.1534C8.60828 36.0005 9.16821 36.1153 12.3125 36.1153H15.0834V38.0966V40.0779L8.95285 43.2365C3.5258 46.0218 2.73615 46.4669 1.98957 47.1848C-0.0922373 49.2235 -0.594742 52.4108 0.740485 55.0956C1.24299 56.0863 2.40593 57.2923 3.39658 57.8235C4.7031 58.527 5.52146 58.6562 8.86671 58.6562C11.7382 58.6562 11.9392 58.6419 12.212 58.3691C12.5852 57.9958 12.5852 57.3354 12.1976 56.9908C11.9248 56.7467 11.5802 56.718 8.63699 56.6462C5.56453 56.5744 5.34917 56.5601 4.67438 56.2155C3.65501 55.7274 2.67872 54.6649 2.30543 53.6743C2.047 52.9995 2.00393 52.6262 2.047 51.693C2.11878 50.329 2.59258 49.3097 3.5258 48.5056C3.84166 48.2329 6.84233 46.5961 10.2019 44.8589L16.3038 41.7147H24.8464H33.389L39.4908 44.8589C42.8504 46.5818 45.8511 48.2329 46.1669 48.5056C46.4828 48.7784 46.9422 49.3527 47.1719 49.7691C47.5596 50.4726 47.6027 50.6592 47.6027 51.9083C47.6027 53.0713 47.5452 53.3871 47.2581 53.9901C46.7987 54.8946 45.9229 55.7704 45.0184 56.2299C44.3148 56.5744 44.2287 56.5744 40.0938 56.6175L35.9015 56.6606L35.9302 53.8322L35.9733 50.9895L37.9402 50.5444C39.017 50.3003 40.0077 50.0132 40.1369 49.8983C40.5102 49.5824 40.3666 48.5918 39.9072 48.3334C39.5769 48.1467 39.0457 48.2472 33.4177 49.525C30.0437 50.286 27.1292 50.9033 26.9425 50.9033C26.7559 50.9033 26.3682 50.6736 26.0667 50.4008C25.0474 49.4389 23.8988 49.0656 22.7071 49.3384C21.8457 49.525 14.5522 54.3347 14.0784 55.0382C13.8487 55.3684 13.7482 55.713 13.7482 56.2586C13.7338 57.1487 14.0353 57.7805 14.6814 58.2542L15.1552 58.5845H29.8714H44.5876L45.406 58.2542C47.3442 57.4646 48.8087 55.8709 49.4117 53.8896C49.6701 53.0713 49.7132 52.6405 49.6558 51.5494C49.5983 50.3865 49.5122 50.0562 49.0528 49.1087C48.0908 47.0843 47.7606 46.8402 40.7399 43.2222L34.6093 40.0779V38.0966V36.1153H37.3803C40.5245 36.1153 41.0845 36.0005 42.0608 35.1534C42.391 34.8806 42.836 34.3207 43.0514 33.9043C43.3816 33.2726 43.4391 32.9998 43.4391 31.9517C43.4391 31.0472 43.3673 30.6021 43.1663 30.2288C42.4053 28.7644 36.9065 19.9203 36.4471 19.4034C35.7866 18.6425 34.5088 17.9533 33.4033 17.7523C32.1686 17.5226 17.1509 17.5657 16.0884 17.7954ZM33.4033 19.8198C33.791 19.9346 34.3365 20.2218 34.638 20.4659C35.0975 20.8392 37.3372 24.2705 37.3372 24.6008C37.3372 24.6869 36.1312 25.2468 34.8678 25.7206C34.638 25.8068 34.6093 25.6919 34.6093 24.6008C34.6093 23.1363 34.4083 22.763 33.6474 22.763C32.628 22.763 32.5993 22.8348 32.5993 26.4529V29.6689L30.7759 29.6258L28.9382 29.5827L28.8377 28.5777C28.6223 26.5964 27.6604 25.3904 25.7939 24.7731L24.8464 24.4572L23.8988 24.7731C22.0323 25.3904 21.0704 26.5964 20.855 28.5777L20.7545 29.5827L18.9312 29.6258L17.0934 29.6689V26.4816C17.0934 22.8635 17.0647 22.763 16.0741 22.763C15.2701 22.763 15.0834 23.122 15.0834 24.6008C15.0834 25.6919 15.0547 25.8068 14.8393 25.7206C13.5615 25.2468 12.3555 24.6869 12.3555 24.6008C12.3555 24.2705 14.5953 20.8392 15.0547 20.4659C16.0597 19.6331 16.1459 19.6188 24.7889 19.6188C31.3502 19.6044 32.8147 19.6331 33.4033 19.8198ZM13.2457 27.2425L15.0834 28.0034V28.8218V29.6545H14.1502C13.3175 29.6545 13.2026 29.6976 12.9872 30.0135C12.7145 30.4442 12.8293 31.1764 13.217 31.3774C13.3749 31.4635 15.2126 31.521 17.7826 31.521C21.8313 31.521 22.0898 31.5066 22.3195 31.2482C22.4918 31.0615 22.6353 30.4873 22.7646 29.4392C22.8938 28.3767 23.0373 27.7881 23.224 27.5297C23.8126 26.74 23.8414 26.8692 23.8414 30.5016C23.8414 33.8181 23.827 33.9617 23.5542 34.1053C23.3532 34.2201 21.1709 34.2489 16.5479 34.2201C10.0871 34.1771 9.82865 34.1627 9.3405 33.8756C8.60828 33.4449 8.19192 32.7557 8.19192 31.9661C8.19192 31.3774 8.3642 31.0328 9.642 28.908C10.446 27.5727 11.1782 26.4959 11.2644 26.4959C11.3505 26.4959 12.2407 26.8261 13.2457 27.2425ZM40.0507 28.8936C41.3285 31.0185 41.5008 31.3774 41.5008 31.9661C41.5008 32.7557 41.0845 33.4449 40.3522 33.8756C39.8641 34.1627 39.6057 34.1771 33.4177 34.2201L27 34.2632L26.7702 34.6078C26.4975 35.0385 26.6123 35.7707 27 35.9717C27.1435 36.0579 28.45 36.1153 29.9288 36.1153H32.5993V37.91V39.7046H24.8464H17.0934V37.91V36.1153H20.6684C24.1285 36.1153 24.2434 36.101 24.7028 35.7851C25.7796 35.0529 25.7796 35.0959 25.8227 30.8605C25.8657 26.8692 25.8944 26.7544 26.4687 27.5297C26.6554 27.7881 26.799 28.3767 26.9282 29.4392C27.0574 30.4873 27.201 31.0615 27.3732 31.2482C27.603 31.5066 27.8614 31.521 31.9532 31.521C36.7773 31.521 36.8203 31.5066 36.8203 30.6165C36.8203 29.8268 36.5763 29.6545 35.5282 29.6545H34.6093V28.8218V28.0034L36.3753 27.2569C37.3372 26.8549 38.2274 26.5103 38.3566 26.5103C38.5145 26.4959 39.0888 27.3143 40.0507 28.8936ZM23.8844 51.3197C24.0711 51.3915 24.4444 51.6643 24.7172 51.9083C25.3632 52.5257 26.2247 52.9133 26.9282 52.9133C27.244 52.9133 28.9238 52.5831 30.6467 52.1955C32.3839 51.7935 33.8484 51.4776 33.9202 51.4776C33.9776 51.4776 34.035 52.6405 34.035 54.0619V56.6462H24.9325C18.7589 56.6462 15.7869 56.6032 15.7295 56.5027C15.5572 56.2299 15.9449 55.9284 19.0317 53.8753C23.2671 51.0325 23.2096 51.0612 23.8844 51.3197Z" fill="#032B79"/>
<path d="M8.11933 47.8145C7.71733 48.2021 7.6599 48.7046 7.94704 49.0923C8.09062 49.2933 9.22484 49.6235 12.2973 50.3414C14.5801 50.887 16.5614 51.332 16.705 51.332C17.0783 51.332 17.5234 50.8008 17.5234 50.3557C17.5234 49.5517 17.3798 49.4943 12.9865 48.4462C10.7036 47.915 8.75105 47.4699 8.65055 47.4556C8.55005 47.4556 8.30598 47.6135 8.11933 47.8145Z" fill="#032B79"/>
</svg>
