<svg width="62" height="47" viewBox="0 0 62 47" fill="none" xmlns="http://www.w3.org/2000/svg">
<path d="M27.3612 0.843681C26.727 1.19727 24.6805 2.92984 23.6034 4.02595C22.4785 5.18099 21.1142 6.83105 20.1329 8.22182C19.6183 8.96435 19.4747 9.10579 19.4148 8.92899C18.7327 7.16107 18.3138 6.50105 17.3086 5.67601C16.0759 4.6624 14.3047 4.17917 12.6891 4.40311C12.1745 4.47382 11.4326 4.6624 11.0496 4.8392L10.3675 5.14563L9.66137 4.75669C9.05103 4.41489 8.85955 4.36775 8.11757 4.36775C7.62691 4.37953 7.10034 4.46204 6.84902 4.56811C4.37176 5.65244 4.31193 9.16472 6.74132 10.2726L7.45936 10.6026V11.6398C7.45936 13.4902 8.29708 15.1639 9.76908 16.2836L10.1161 16.5429L9.56563 17.3561C7.95003 19.7487 7.68674 22.212 8.60824 26.3136C8.95529 27.8576 9.90072 30.6627 10.176 30.9573C10.4393 31.252 11.3009 31.2402 11.5642 30.9573C11.8754 30.6155 11.8155 30.1205 11.1812 28.2583C10.3914 25.9364 10.0563 24.1803 10.0443 22.3888C10.0324 21.2102 10.0802 20.8448 10.3076 20.1966C10.6188 19.3008 11.277 18.1811 11.7437 17.7097C12.0429 17.415 12.1147 17.3915 12.8088 17.4622L13.5508 17.5329L12.9046 18.464C12.1267 19.5837 11.9232 20.3262 12.1147 21.3398C12.4378 23.0724 13.838 24.2157 15.6092 24.2157C17.153 24.2157 18.2061 23.4731 19.1276 21.7406L19.6422 20.7505L19.714 21.5166C19.7499 21.9291 19.7978 23.4613 19.8337 24.9228C19.8816 27.7987 20.0132 28.659 20.6236 30.1087C21.0903 31.2166 21.7246 32.1477 22.6221 33.0789L23.4 33.8685L22.3947 34.34C20.1927 35.3772 18.3019 35.7307 15.3459 35.66L14.6757 35.6482L14.0534 34.5403C13.3593 33.291 13.2755 33.2085 12.7609 33.1024C12.4857 33.0553 12.3301 33.1024 12.0668 33.3264C11.5403 33.7742 11.6001 34.1985 12.4139 35.5893C13.2875 37.0744 15.1664 39.8323 15.9682 40.7988L16.5786 41.5413H9.76908C1.94237 41.5413 2.06205 41.5295 1.24826 42.4371C0.709724 43.0382 0.578082 43.4743 0.661854 44.4289C0.733659 45.2893 1.16449 45.9022 1.96631 46.3029L2.60058 46.6094H31.2746H59.9486L60.5829 46.3029C61.3847 45.9022 61.8155 45.2893 61.8873 44.4289C61.9711 43.4743 61.8394 43.0382 61.3009 42.4371C60.7025 41.7653 60.0084 41.5413 58.5723 41.5413H57.5431L57.579 38.2648C57.6149 35.0236 57.6149 34.9882 57.3277 34.4696C56.5977 33.0906 54.3239 32.9492 53.4503 34.2221C53.3067 34.4343 53.0434 35.2004 52.8758 35.9429C52.5288 37.3926 52.3852 37.6165 51.691 37.7697C51.1884 37.8758 42.5718 37.0036 39.4723 36.5322C34.2664 35.7307 28.0194 34.1868 26.0089 33.2085C24.6925 32.5603 23.3402 31.2049 22.682 29.873C21.8921 28.2819 21.8203 27.8812 21.7006 23.9799C21.5929 20.5973 21.5331 19.9844 21.1741 18.8058L21.0065 18.2401L23.029 14.4803C24.13 12.4177 25.0515 10.5791 25.0515 10.4141C25.0515 10.2373 24.9438 9.96618 24.8002 9.78938C24.501 9.42402 23.8907 9.37687 23.5197 9.68331C23.3761 9.80117 21.8562 12.5238 20.1449 15.7296C18.4215 18.9355 16.8658 21.717 16.6863 21.9056C16.052 22.5302 14.8193 22.4242 14.3406 21.6934C14.0175 21.222 13.9338 20.7505 14.0893 20.3144C14.2449 19.8901 21.7724 9.20008 23.1128 7.49108C23.9146 6.47747 26.0927 4.17917 26.2483 4.17917C26.2961 4.17917 26.0687 4.67419 25.7576 5.2635C25.0635 6.57176 25.0036 7.10214 25.4823 7.46751C25.8892 7.78574 26.2842 7.78574 26.6551 7.44394C27.0979 7.04321 29.4795 2.52911 29.4795 2.06944C29.4795 0.961544 28.3545 0.313305 27.3612 0.843681ZM8.68004 6.39497C8.72791 6.44211 8.60824 6.7132 8.40479 6.99606C8.21331 7.29072 7.962 7.77395 7.85429 8.08039C7.66281 8.61077 7.63888 8.62255 7.39953 8.46933C6.87296 8.12754 6.70541 7.27893 7.05247 6.78391C7.41149 6.28889 8.33299 6.06496 8.68004 6.39497ZM15.1305 6.60712C15.5015 6.77213 16.052 7.16107 16.3871 7.49108L16.9615 8.0686H15.3818C14.0534 8.0686 13.7183 8.10396 13.3473 8.29254C12.5216 8.71684 11.8873 9.62438 11.8873 10.3905C11.8873 10.5791 11.7916 10.8619 11.6839 11.0151C11.3847 11.463 9.84089 13.1367 9.74515 13.1367C9.52973 13.1367 9.37416 12.1348 9.37416 10.8619C9.37416 9.23544 9.58957 8.50469 10.3435 7.66787C11.5881 6.27711 13.4431 5.86459 15.1305 6.60712ZM17.6317 10.8619V11.7812L16.399 13.5256C15.1784 15.2582 15.1784 15.2582 14.5321 15.4467C13.6465 15.706 12.5575 15.6118 11.7078 15.1992C11.3488 15.0342 11.0496 14.8457 11.0496 14.7985C11.0496 14.7396 11.5642 14.1267 12.1985 13.4195C13.5029 11.958 13.6585 11.7105 13.7662 10.9326C13.8859 9.97796 13.9457 9.95439 15.9203 9.95439H17.6317V10.8619ZM25.7815 35.2239C27.1099 35.7897 31.9807 37.0744 35.4512 37.758C38.2516 38.3119 40.8605 38.6773 45.1568 39.1252C47.3588 39.3491 49.3933 39.5612 49.6805 39.5966L50.1831 39.6673V40.6102V41.5413H34.9965H19.8098L19.1157 41.0817C18.242 40.5041 17.883 40.1388 16.8059 38.7126L15.9563 37.593L17.2966 37.5222C20.0731 37.369 22.9572 36.4851 24.6925 35.2475C24.9199 35.0825 25.1233 34.9529 25.1233 34.9411C25.1353 34.9411 25.4345 35.0707 25.7815 35.2239ZM55.5446 35.3182C55.6523 35.4243 55.6882 36.2258 55.6882 38.1941C55.6882 41.7417 55.8078 41.5413 53.6417 41.5413H52.0979V40.5984C52.0979 39.797 52.1338 39.6437 52.3134 39.5848C53.3306 39.2666 53.9768 38.748 54.2999 37.9819C54.4077 37.7462 54.5872 37.0979 54.7188 36.544C54.9941 35.2947 55.2095 34.9882 55.5446 35.3182ZM59.7332 43.6157C60.0443 43.8278 60.0802 44.2757 59.805 44.535C59.6374 44.7 56.8849 44.7236 31.2746 44.7236C5.66425 44.7236 2.91173 44.7 2.74419 44.535C2.46894 44.2757 2.50484 43.8278 2.81599 43.6157C3.05534 43.4507 5.95146 43.4271 31.2746 43.4271C56.5977 43.4271 59.4938 43.4507 59.7332 43.6157Z" fill="#032B79"/>
</svg>
