<svg width="96" height="91" viewBox="0 0 96 91" fill="none" xmlns="http://www.w3.org/2000/svg">
<path d="M31.2736 34.1529C40.0542 33.47 46.1331 30.5963 49.3522 25.617C53.6635 18.9448 50.7893 11.2768 50.7174 10.9496C50.1784 8.77036 49.0355 6.78336 47.4174 5.21239C45.7992 3.64142 43.7702 2.54888 41.5587 2.0578C39.3472 1.56672 37.0412 1.69662 34.9003 2.43286C32.7593 3.16909 30.8686 4.48243 29.4409 6.22497C28.0132 7.9675 27.1054 10.07 26.8195 12.2957C26.5337 14.5214 26.8813 16.782 27.8231 18.8227C28.7649 20.8634 30.2636 22.6033 32.1503 23.8465C34.037 25.0896 36.2369 25.7865 38.5021 25.8589C36.0498 26.7529 33.4794 27.2896 30.8712 27.4522H5.40591C4.95864 27.4522 4.51575 27.5394 4.10252 27.7089C3.6893 27.8783 3.31384 28.1267 2.99757 28.4398C2.6813 28.7528 2.43042 29.1245 2.25926 29.5336C2.0881 29.9427 2 30.3811 2 30.8239C2 31.2667 2.0881 31.7051 2.25926 32.1142C2.43042 32.5232 2.6813 32.8949 2.99757 33.208C3.31384 33.5211 3.6893 33.7694 4.10252 33.9389C4.51575 34.1083 4.95864 34.1955 5.40591 34.1955H31.2736V34.1529ZM58.9951 66.8593C55.7904 61.8801 49.7115 59.0064 40.9165 58.3235H25.7264C24.8595 58.3792 24.0464 58.7594 23.4524 59.3869C22.8583 60.0145 22.5277 60.8422 22.5277 61.7023C22.5277 62.5623 22.8583 63.3901 23.4524 64.0176C24.0464 64.6451 24.8595 65.0253 25.7264 65.081H40.5141C41.9632 65.1835 43.4036 65.3831 44.8254 65.6785C42.7535 66.4643 40.938 67.7956 39.575 69.5287C38.2121 71.2618 37.3536 73.3308 37.0923 75.5118C36.831 77.6929 37.1769 79.9032 38.0925 81.9039C39.0082 83.9045 40.4588 85.6193 42.2876 86.8629C44.1163 88.1066 46.2537 88.8317 48.4686 88.9601C50.6835 89.0884 52.8917 88.615 54.8545 87.591C56.8173 86.567 58.4601 85.0315 59.6053 83.1503C60.7504 81.269 61.3544 79.1138 61.3519 76.9174C61.706 73.3993 60.8775 69.8639 58.9951 66.8593ZM93.4278 24.0094C92.9649 21.4041 91.7859 18.9753 90.0201 16.9898C88.2543 15.0043 85.97 13.5387 83.418 12.7541C80.866 11.9695 78.145 11.896 75.5536 12.5419C72.9622 13.1877 70.6007 14.5279 68.7283 16.4152C66.8558 18.3026 65.5449 20.6641 64.9393 23.2407C64.3337 25.8172 64.4569 28.5091 65.2954 31.0209C66.1339 33.5326 67.6553 35.7671 69.6925 37.4791C71.7297 39.1911 74.204 40.3143 76.8438 40.7255C74.5182 41.3578 72.1356 41.7628 69.7302 41.9347H37.0794C36.2125 41.9904 35.3995 42.3706 34.8054 42.9981C34.2113 43.6257 33.8807 44.4534 33.8807 45.3135C33.8807 46.1735 34.2113 47.0013 34.8054 47.6288C35.3995 48.2563 36.2125 48.6365 37.0794 48.6922H70.1326C80.4221 47.8813 87.507 44.5524 91.2291 38.7338C93.877 34.2985 94.6662 29.0134 93.4278 24.0094ZM12.0596 41.9347C11.1927 41.9904 10.3797 42.3706 9.78562 42.9981C9.19155 43.6257 8.86095 44.4534 8.86095 45.3135C8.86095 46.1735 9.19155 47.0013 9.78562 47.6288C10.3797 48.2563 11.1927 48.6365 12.0596 48.6922H25.7982C26.2651 48.7222 26.7332 48.6571 27.1736 48.5009C27.614 48.3447 28.0173 48.1007 28.3587 47.784C28.7 47.4673 28.9721 47.0846 29.1581 46.6597C29.3441 46.2348 29.4401 45.7766 29.4401 45.3135C29.4401 44.8503 29.3441 44.3922 29.1581 43.9672C28.9721 43.5423 28.7 43.1596 28.3587 42.8429C28.0173 42.5263 27.614 42.2823 27.1736 42.126C26.7332 41.9698 26.2651 41.9047 25.7982 41.9347H12.0596ZM13.4967 58.3093H9.80341C9.33657 58.2793 8.86848 58.3444 8.42807 58.5006C7.98767 58.6568 7.58432 58.9008 7.24298 59.2175C6.90163 59.5342 6.62954 59.9169 6.44353 60.3418C6.25752 60.7667 6.16154 61.2249 6.16154 61.688C6.16154 62.1512 6.25752 62.6094 6.44353 63.0343C6.62954 63.4592 6.90163 63.8419 7.24298 64.1586C7.58432 64.4752 7.98767 64.7192 8.42807 64.8755C8.86848 65.0317 9.33657 65.0968 9.80341 65.0668H13.4967C14.3637 65.0111 15.1767 64.6309 15.7708 64.0034C16.3648 63.3759 16.6954 62.5481 16.6954 61.688C16.6954 60.828 16.3648 60.0002 15.7708 59.3727C15.1767 58.7452 14.3637 58.365 13.4967 58.3093Z" stroke="#F1F1F1" stroke-width="3"/>
</svg>
