<svg width="54" height="54" viewBox="0 0 54 54" fill="none" xmlns="http://www.w3.org/2000/svg">
<path d="M24.967 0.961564C23.3061 1.50742 21.9816 2.69183 21.1827 4.32941C20.552 5.61681 20.3523 6.57464 20.4154 8.07833C20.51 10.0764 21.2248 11.6934 22.6018 13.0323C23.8738 14.2579 25.461 14.8449 27.227 14.7522C28.4674 14.6904 29.2979 14.4124 30.3385 13.7326C31.6315 12.8881 32.4724 11.786 33.0401 10.1794C33.45 8.99496 33.5552 7.31619 33.2818 6.06998C32.8824 4.27791 31.7051 2.53734 30.2439 1.60012C28.7512 0.642288 26.6699 0.384808 24.967 0.961564ZM28.8248 2.76393C33.019 4.79288 32.567 11.6007 28.1521 12.9499C24.0525 14.1961 20.6361 9.22154 22.7175 5.02976C23.0644 4.30881 23.8843 3.38188 24.4624 3.03171C25.3875 2.46525 25.9551 2.31076 27.0273 2.34166C27.9418 2.37256 28.0995 2.40346 28.8248 2.76393Z" fill="#032B79"/>
<path d="M0.756851 5.20726C0.567639 5.32055 0.325867 5.55743 0.210236 5.74282C0.0105118 6.0621 0 6.26808 0 9.37844C0 12.4888 0.0105118 12.6948 0.210236 13.0141C0.588662 13.6217 0.956576 13.7556 2.24953 13.7556C3.22713 13.7556 3.44788 13.7247 3.79477 13.529C4.4465 13.1686 4.6252 12.6845 4.6252 11.3044V10.1509H4.94056H5.25591V13.5187C5.25591 15.3829 5.30847 17.2265 5.36103 17.6384C5.6028 19.4511 7.00087 20.8724 8.84044 21.1711C9.20836 21.2226 10.1649 21.274 10.9533 21.274C12.3514 21.274 12.3934 21.2843 12.4565 21.5006C12.4986 21.6345 12.6352 21.8508 12.7614 21.9744C13.2134 22.4688 13.4341 22.51 15.4419 22.51C17.0186 22.51 17.355 22.5409 17.4917 22.6747C17.6388 22.8189 17.6599 23.5708 17.6599 29.4516V36.0637L17.9332 36.5993C18.238 37.1967 18.6585 37.588 19.3418 37.897C19.8043 38.1133 19.9304 38.1133 26.9103 38.1133C33.8901 38.1133 34.0163 38.1133 34.4788 37.897C35.1621 37.588 35.5825 37.1967 35.8874 36.5993L36.1607 36.0637V29.4516C36.1607 23.5708 36.1817 22.8189 36.3289 22.6747C36.4655 22.5409 36.8019 22.51 38.3787 22.51C40.3864 22.51 40.6072 22.4688 41.0592 21.9744C41.1853 21.8508 41.322 21.6345 41.364 21.5006C41.4271 21.2843 41.4691 21.274 42.8672 21.274C43.6556 21.274 44.6122 21.2226 44.9801 21.1711C46.8092 20.8724 48.2177 19.4511 48.4595 17.6384C48.5121 17.2368 48.5646 15.3829 48.5646 13.5187V10.1509H48.88H49.1953V11.3044C49.1953 12.6845 49.374 13.1686 50.0258 13.529C50.3727 13.7247 50.5934 13.7556 51.571 13.7556C52.864 13.7556 53.2319 13.6217 53.6103 13.0141C53.81 12.6948 53.8205 12.4888 53.8205 9.37844C53.8205 6.26808 53.81 6.0621 53.6103 5.74282C53.2319 5.13517 52.864 5.00127 51.5605 5.00127C50.1729 5.00127 49.805 5.14546 49.4371 5.82521C49.2269 6.20628 49.1953 6.42257 49.1953 7.3907V8.50301H48.7118C48.2808 8.50301 48.1862 8.46181 47.7342 8.00865C46.5884 6.84484 44.6963 6.88603 43.5925 8.08074C43.2246 8.47211 43.1721 8.50301 42.636 8.50301H42.0683L42.0263 7.23621C41.9947 6.13419 41.9632 5.9385 41.7635 5.66042C41.3745 5.13517 40.9646 5.00127 39.6611 5.00127C38.3787 5.00127 38.0108 5.13517 37.6323 5.74282C37.4326 6.0621 37.4221 6.26808 37.4221 9.38874C37.4221 12.6536 37.4221 12.6948 37.6639 13.045C38.0423 13.6114 38.4628 13.7556 39.7347 13.7556C41.0382 13.7556 41.4376 13.6011 41.8055 12.9729C42.0158 12.6227 42.0473 12.427 42.0473 11.3559V10.1509H42.4678H42.8882V12.9317V15.7125H42.1314C41.3851 15.7022 41.3535 15.6919 41.1538 15.3829C41.0382 15.2078 40.7754 14.9709 40.5756 14.8679C40.2287 14.6928 39.9344 14.6825 35.8348 14.7031L31.4724 14.734L31.0309 15.0224C30.7681 15.1872 30.4633 15.5168 30.2741 15.8464C29.7695 16.7321 29.2754 17.2162 28.5081 17.5869C27.8774 17.8959 27.7092 17.9268 26.9103 17.9268C26.1114 17.9268 25.9432 17.8959 25.3125 17.5869C24.5451 17.2162 24.0511 16.7321 23.5465 15.8464C23.3573 15.5168 23.0524 15.1872 22.7896 15.0224C22.3902 14.7546 22.2535 14.734 21.1918 14.7031C20.1196 14.6619 20.004 14.6825 19.7412 14.8885C19.5099 15.0636 19.4469 15.1975 19.4469 15.5065C19.4469 16.1244 19.7833 16.3304 20.8239 16.3304C21.2654 16.3304 21.7174 16.3613 21.812 16.3922C21.9066 16.4334 22.1064 16.7012 22.2535 16.9896C22.6004 17.6693 23.6516 18.6683 24.3874 19.0288C26.0063 19.8219 27.8143 19.8219 29.4331 19.0288C30.1689 18.6683 31.2201 17.6693 31.567 16.9896C31.7142 16.7012 31.9139 16.4334 32.0085 16.3922C32.1031 16.3613 33.9111 16.3304 36.0135 16.3304H39.8398V18.586V20.8415L37.8741 20.8827C35.8243 20.9136 35.6456 20.9548 35.1305 21.4182C34.5103 21.9641 34.5313 21.6448 34.4998 29.0191L34.4683 35.7857L34.1634 36.0843C33.9952 36.2491 33.7114 36.4139 33.5222 36.4551C33.0912 36.5375 20.7293 36.5375 20.2983 36.4551C20.1091 36.4139 19.8253 36.2491 19.6571 36.0843L19.3523 35.7857L19.3207 29.0191C19.2892 21.6448 19.3102 21.9641 18.69 21.4182C18.1749 20.9548 17.9962 20.9136 15.9569 20.8827L13.9807 20.8415V18.586V16.3304H15.6731C16.5982 16.3304 17.4391 16.2892 17.5442 16.2274C17.8701 16.0626 18.0278 15.558 17.8701 15.1975C17.7965 15.0224 17.6494 14.837 17.5442 14.7855C17.4391 14.7237 16.5141 14.6825 15.4839 14.6825C13.3921 14.6825 13.0767 14.7649 12.6667 15.3829C12.467 15.6919 12.4355 15.7022 11.6997 15.7125H10.9323V12.9317V10.1509H11.3528H11.7732V11.3559C11.7732 12.427 11.8048 12.6227 12.015 12.9729C12.3829 13.6011 12.7824 13.7556 14.0858 13.7556C15.3578 13.7556 15.7782 13.6114 16.1567 13.045C16.3984 12.6948 16.3984 12.6536 16.3984 9.38874C16.3984 6.26808 16.3879 6.0621 16.1882 5.74282C15.8098 5.13517 15.4419 5.00127 14.1594 5.00127C12.856 5.00127 12.446 5.12487 12.0781 5.62953C11.8468 5.9488 11.8258 6.10329 11.7943 7.23621L11.7522 8.50301H11.1846C10.6485 8.50301 10.5959 8.47211 10.228 8.08074C9.71292 7.52458 9.13478 7.24651 8.34639 7.18471C7.42135 7.11262 6.74859 7.3598 6.09686 7.99835C5.63434 8.45152 5.53973 8.50301 5.09823 8.50301H4.6252V7.3907C4.6252 6.42257 4.59367 6.20628 4.38343 5.82521C4.01552 5.14546 3.6476 5.00127 2.26004 5.00127C1.29295 5.00127 1.05118 5.03217 0.756851 5.20726ZM2.94331 9.37844V12.1077H2.3126H1.68189V9.37844V6.64915H2.3126H2.94331V9.37844ZM14.7166 9.37844V12.1077H14.0858H13.4551V9.37844V6.64915H14.0858H14.7166V9.37844ZM40.3654 9.37844V12.1077H39.7347H39.104V9.37844V6.64915H39.7347H40.3654V9.37844ZM52.1386 9.37844V12.1077H51.5079H50.8772V9.37844V6.64915H51.5079H52.1386V9.37844ZM8.85096 9.11066L9.19785 9.40934L9.25041 13.1892L9.30296 16.969L9.55525 17.1647C9.76548 17.3294 9.97572 17.3603 11.0479 17.3603H12.2988V18.5036V19.6468L10.5959 19.6056C8.65123 19.5644 8.34639 19.4717 7.65261 18.7198C7.00087 18.0092 6.99036 17.9371 6.99036 13.5496C6.99036 9.9449 7.01139 9.56383 7.16906 9.32695C7.60005 8.73989 8.32536 8.6472 8.85096 9.11066ZM46.231 8.95618C46.8197 9.25485 46.8302 9.31665 46.8302 13.5908C46.8302 17.9371 46.8197 18.0092 46.1679 18.7198C45.4742 19.4717 45.1693 19.5644 43.2351 19.6056L41.5217 19.6468V18.5036V17.3603H42.7726C43.8448 17.3603 44.0551 17.3294 44.2653 17.1647L44.5176 16.969L44.5701 13.1892L44.6227 9.40934L44.9696 9.11066C45.348 8.78109 45.779 8.72959 46.231 8.95618Z" fill="#032B79"/>
<path d="M18.1323 39.6054C17.8485 39.904 15.7146 50.9551 15.8092 51.604C15.9038 52.2116 16.4189 52.8708 17.0286 53.1797C17.4911 53.4063 17.5437 53.4166 20.8654 53.3857L24.2292 53.3548L24.6181 53.0973C25.2068 52.706 25.4275 52.2734 26.1739 50.1312C26.5523 49.0394 26.8782 48.1537 26.9097 48.1537C26.9412 48.1537 27.2881 49.0703 27.6771 50.193C28.4339 52.3661 28.6231 52.706 29.2118 53.1076C29.5902 53.3548 29.5902 53.3548 32.954 53.3857C36.2757 53.4166 36.3283 53.4063 36.7908 53.1797C37.4005 52.8708 37.9156 52.2116 38.0102 51.5937C38.0627 51.2332 37.9261 50.3577 37.4215 47.7623C35.8973 39.9143 35.8658 39.7701 35.624 39.5745C35.1299 39.1831 34.268 39.5333 34.268 40.1409C34.268 40.3057 34.741 42.8805 35.3297 45.857C36.3178 50.9242 36.3703 51.2744 36.2127 51.5113L36.055 51.7584L33.7108 51.779C30.1053 51.8202 30.2945 51.8305 30.0738 51.604C29.9686 51.4907 29.3695 49.9252 28.7493 48.1228C27.5719 44.7138 27.4878 44.549 26.9097 44.549C26.3315 44.549 26.258 44.7138 25.0701 48.1228C24.4499 49.9252 23.8507 51.4907 23.7456 51.604C23.5249 51.8305 23.7141 51.8202 20.1085 51.779L17.7644 51.7584L17.6067 51.5113C17.449 51.2744 17.5016 50.9242 18.4897 45.857C19.0784 42.8805 19.5514 40.3057 19.5514 40.1306C19.5514 39.9452 19.4568 39.7186 19.3412 39.6054C19.0574 39.3273 18.3951 39.3273 18.1323 39.6054Z" fill="#032B79"/>
</svg>
