<svg width="52" height="41" viewBox="0 0 52 41" fill="none" xmlns="http://www.w3.org/2000/svg">
<mask id="path-1-inside-1_649_25525" fill="white">
<path d="M25.5293 3.30859C22.3314 3.30859 19.2053 4.29422 16.5463 6.14082C13.8874 7.98743 11.8149 10.6121 10.5911 13.6829C9.36736 16.7537 9.04716 20.1327 9.67104 23.3926C10.2949 26.6526 11.8349 29.647 14.0961 31.9973C16.3574 34.3476 19.2384 35.9481 22.3749 36.5966C25.5114 37.245 28.7624 36.9122 31.7169 35.6402C34.6714 34.3683 37.1966 32.2143 38.9733 29.4506C40.75 26.687 41.6983 23.4378 41.6983 20.114C41.6935 15.6585 39.9885 11.3868 36.9573 8.23622C33.926 5.08566 29.8161 3.31351 25.5293 3.30859ZM25.5293 35.1505C22.668 35.1505 19.871 34.2686 17.4919 32.6164C15.1128 30.9642 13.2586 28.6158 12.1636 25.8682C11.0686 23.1207 10.7821 20.0974 11.3403 17.1806C11.8985 14.2638 13.2764 11.5845 15.2996 9.48166C17.3229 7.37878 19.9006 5.94669 22.7069 5.36651C25.5133 4.78632 28.4221 5.0841 31.0656 6.22217C33.7091 7.36024 35.9685 9.2875 37.5581 11.7602C39.1478 14.233 39.9963 17.1401 39.9963 20.114C39.992 24.1006 38.4664 27.9226 35.7543 30.7415C33.0421 33.5604 29.3649 35.146 25.5293 35.1505Z"/>
</mask>
<path d="M25.5293 3.30859C22.3314 3.30859 19.2053 4.29422 16.5463 6.14082C13.8874 7.98743 11.8149 10.6121 10.5911 13.6829C9.36736 16.7537 9.04716 20.1327 9.67104 23.3926C10.2949 26.6526 11.8349 29.647 14.0961 31.9973C16.3574 34.3476 19.2384 35.9481 22.3749 36.5966C25.5114 37.245 28.7624 36.9122 31.7169 35.6402C34.6714 34.3683 37.1966 32.2143 38.9733 29.4506C40.75 26.687 41.6983 23.4378 41.6983 20.114C41.6935 15.6585 39.9885 11.3868 36.9573 8.23622C33.926 5.08566 29.8161 3.31351 25.5293 3.30859ZM25.5293 35.1505C22.668 35.1505 19.871 34.2686 17.4919 32.6164C15.1128 30.9642 13.2586 28.6158 12.1636 25.8682C11.0686 23.1207 10.7821 20.0974 11.3403 17.1806C11.8985 14.2638 13.2764 11.5845 15.2996 9.48166C17.3229 7.37878 19.9006 5.94669 22.7069 5.36651C25.5133 4.78632 28.4221 5.0841 31.0656 6.22217C33.7091 7.36024 35.9685 9.2875 37.5581 11.7602C39.1478 14.233 39.9963 17.1401 39.9963 20.114C39.992 24.1006 38.4664 27.9226 35.7543 30.7415C33.0421 33.5604 29.3649 35.146 25.5293 35.1505Z" fill="#032B79"/>
<path d="M25.5293 3.30859L25.5352 -1.79739H25.5293V3.30859ZM41.6983 20.114H46.8043L46.8042 20.1086L41.6983 20.114ZM25.5293 35.1505V40.2565L25.5352 40.2565L25.5293 35.1505ZM39.9963 20.114L45.1023 20.1195V20.114H39.9963ZM25.5293 -1.79739C21.2766 -1.79739 17.1366 -0.485672 13.6338 1.94699L19.4589 10.3347C21.274 9.0741 23.3862 8.41458 25.5293 8.41458V-1.79739ZM13.6338 1.94699C10.1335 4.37786 7.43439 7.81182 5.84795 11.7926L15.3343 15.5732C16.1955 13.4123 17.6412 11.597 19.4589 10.3347L13.6338 1.94699ZM5.84795 11.7926C4.26208 15.7719 3.84992 20.1401 4.65607 24.3524L14.686 22.4329C14.2444 20.1253 14.4726 17.7354 15.3343 15.5732L5.84795 11.7926ZM4.65607 24.3524C5.46235 28.5654 7.45699 32.4612 10.4167 35.5374L17.7756 28.4572C16.2127 26.8328 15.1275 24.7397 14.686 22.4329L4.65607 24.3524ZM10.4167 35.5374C13.3783 38.6157 17.1761 40.7357 21.3411 41.5968L23.4087 31.5963C21.3008 31.1605 19.3365 30.0794 17.7756 28.4572L10.4167 35.5374ZM21.3411 41.5968C25.5077 42.4582 29.8242 42.0141 33.736 40.3301L29.6978 30.9504C27.7006 31.8103 25.515 32.0318 23.4087 31.5963L21.3411 41.5968ZM33.736 40.3301C37.6452 38.6471 40.9544 35.8111 43.2683 32.2118L34.6783 26.6895C33.4389 28.6175 31.6976 30.0895 29.6978 30.9504L33.736 40.3301ZM43.2683 32.2118C45.581 28.6144 46.8043 24.4048 46.8043 20.114H36.5923C36.5923 22.4709 35.919 24.7596 34.6783 26.6895L43.2683 32.2118ZM46.8042 20.1086C46.7981 14.3629 44.6012 8.81663 40.6367 4.6961L33.2778 11.7764C35.3758 13.9569 36.5889 16.954 36.5923 20.1195L46.8042 20.1086ZM40.6367 4.6961C36.6659 0.568896 31.2391 -1.79085 25.5352 -1.79739L25.5235 8.41458C28.3932 8.41787 31.1862 9.60242 33.2778 11.7764L40.6367 4.6961ZM25.5293 30.0445C23.7228 30.0445 21.9396 29.4887 20.4044 28.4226L14.5794 36.8102C17.8023 39.0485 21.6133 40.2565 25.5293 40.2565V30.0445ZM20.4044 28.4226C18.8667 27.3546 17.6391 25.8155 16.9068 23.978L7.42039 27.7585C8.87801 31.416 11.359 34.5737 14.5794 36.8102L20.4044 28.4226ZM16.9068 23.978C16.1739 22.139 15.9794 20.1048 16.3553 18.1403L6.32536 16.2208C5.58489 20.09 5.96334 24.1024 7.42039 27.7585L16.9068 23.978ZM16.3553 18.1403C16.7311 16.1766 17.6543 14.3988 18.9791 13.0218L11.6201 5.94154C8.89851 8.77031 7.06597 12.3509 6.32536 16.2208L16.3553 18.1403ZM18.9791 13.0218C20.3019 11.6469 21.963 10.7343 23.7407 10.3668L21.6732 0.366267C17.8383 1.1591 14.3438 3.11065 11.6201 5.94154L18.9791 13.0218ZM23.7407 10.3668C25.5169 9.99954 27.3603 10.186 29.0465 10.912L33.0846 1.53234C29.4839 -0.0178432 25.5096 -0.426886 21.6732 0.366267L23.7407 10.3668ZM29.0465 10.912C30.7353 11.639 32.2107 12.8843 33.2631 14.5214L41.8532 8.99909C39.7263 5.69068 36.6829 3.08146 33.0846 1.53234L29.0465 10.912ZM33.2631 14.5214C34.3168 16.1604 34.8903 18.1071 34.8903 20.114H45.1023C45.1023 16.1731 43.9788 12.3056 41.8532 8.99909L33.2631 14.5214ZM34.8903 20.1086C34.8874 22.805 33.8537 25.3524 32.0748 27.2014L39.4338 34.2816C43.0791 30.4928 45.0966 25.3962 45.1023 20.1195L34.8903 20.1086ZM32.0748 27.2014C30.3023 29.0437 27.9419 30.0417 25.5234 30.0445L25.5352 40.2565C30.7879 40.2504 35.782 38.0772 39.4338 34.2816L32.0748 27.2014Z" fill="#032B79" mask="url(#path-1-inside-1_649_25525)"/>
<mask id="path-3-inside-2_649_25525" fill="white">
<path d="M9.36097 10.3857V1.54075H7.65898V9.50122H6.80798V1.54075H5.10599V9.50122H4.25499V1.54075H2.55299V9.50122H1.702V1.54075H0V14.8082C0.000643991 15.3568 0.164563 15.8918 0.469277 16.3398C0.773991 16.7878 1.20458 17.1268 1.702 17.3104V37.8051C1.702 38.5089 1.97097 39.1838 2.44975 39.6814C2.92853 40.1791 3.57789 40.4586 4.25499 40.4586H5.10599C5.78308 40.4586 6.43245 40.1791 6.91122 39.6814C7.39 39.1838 7.65898 38.5089 7.65898 37.8051V17.3104C8.15639 17.1268 8.58698 16.7878 8.8917 16.3398C9.19641 15.8918 9.36033 15.3568 9.36097 14.8082V10.3857ZM7.65898 14.8082C7.65898 15.0428 7.56932 15.2678 7.40973 15.4336C7.25013 15.5995 7.03368 15.6927 6.80798 15.6927C6.58228 15.6927 6.36583 15.7859 6.20623 15.9518C6.04664 16.1176 5.95698 16.3426 5.95698 16.5772V37.8051C5.95698 38.0397 5.86732 38.2647 5.70773 38.4306C5.54814 38.5964 5.33168 38.6896 5.10599 38.6896H4.25499C4.02929 38.6896 3.81283 38.5964 3.65324 38.4306C3.49365 38.2647 3.40399 38.0397 3.40399 37.8051V16.5772C3.40399 16.3426 3.31433 16.1176 3.15474 15.9518C2.99515 15.7859 2.77869 15.6927 2.55299 15.6927C2.32729 15.6927 2.11084 15.5995 1.95125 15.4336C1.79165 15.2678 1.702 15.0428 1.702 14.8082V11.2702H7.65898V14.8082ZM50.2089 0.65625C48.1783 0.658591 46.2315 1.49803 44.7956 2.9904C43.3598 4.48278 42.5521 6.50619 42.5499 8.61672V20.1152C42.5499 20.8189 42.8189 21.4939 43.2976 21.9915C43.7764 22.4891 44.4258 22.7687 45.1029 22.7687V39.5741C45.1029 39.8087 45.1925 40.0337 45.3521 40.1996C45.5117 40.3654 45.7282 40.4586 45.9539 40.4586H50.2089C50.4346 40.4586 50.651 40.3654 50.8106 40.1996C50.9702 40.0337 51.0599 39.8087 51.0599 39.5741V1.54075C51.0599 1.30616 50.9702 1.08119 50.8106 0.915313C50.651 0.749438 50.4346 0.65625 50.2089 0.65625ZM49.3579 38.6896H46.8049V21.8842C46.8049 21.6496 46.7152 21.4246 46.5556 21.2587C46.396 21.0929 46.1796 20.9997 45.9539 20.9997H45.1029C44.8772 20.9997 44.6607 20.9065 44.5011 20.7406C44.3415 20.5747 44.2519 20.3498 44.2519 20.1152V8.61672C44.2537 7.12832 44.7704 5.69024 45.7079 4.56506C46.6453 3.43988 47.9408 2.70267 49.3579 2.48804V38.6896Z"/>
</mask>
<path d="M9.36097 10.3857V1.54075H7.65898V9.50122H6.80798V1.54075H5.10599V9.50122H4.25499V1.54075H2.55299V9.50122H1.702V1.54075H0V14.8082C0.000643991 15.3568 0.164563 15.8918 0.469277 16.3398C0.773991 16.7878 1.20458 17.1268 1.702 17.3104V37.8051C1.702 38.5089 1.97097 39.1838 2.44975 39.6814C2.92853 40.1791 3.57789 40.4586 4.25499 40.4586H5.10599C5.78308 40.4586 6.43245 40.1791 6.91122 39.6814C7.39 39.1838 7.65898 38.5089 7.65898 37.8051V17.3104C8.15639 17.1268 8.58698 16.7878 8.8917 16.3398C9.19641 15.8918 9.36033 15.3568 9.36097 14.8082V10.3857ZM7.65898 14.8082C7.65898 15.0428 7.56932 15.2678 7.40973 15.4336C7.25013 15.5995 7.03368 15.6927 6.80798 15.6927C6.58228 15.6927 6.36583 15.7859 6.20623 15.9518C6.04664 16.1176 5.95698 16.3426 5.95698 16.5772V37.8051C5.95698 38.0397 5.86732 38.2647 5.70773 38.4306C5.54814 38.5964 5.33168 38.6896 5.10599 38.6896H4.25499C4.02929 38.6896 3.81283 38.5964 3.65324 38.4306C3.49365 38.2647 3.40399 38.0397 3.40399 37.8051V16.5772C3.40399 16.3426 3.31433 16.1176 3.15474 15.9518C2.99515 15.7859 2.77869 15.6927 2.55299 15.6927C2.32729 15.6927 2.11084 15.5995 1.95125 15.4336C1.79165 15.2678 1.702 15.0428 1.702 14.8082V11.2702H7.65898V14.8082ZM50.2089 0.65625C48.1783 0.658591 46.2315 1.49803 44.7956 2.9904C43.3598 4.48278 42.5521 6.50619 42.5499 8.61672V20.1152C42.5499 20.8189 42.8189 21.4939 43.2976 21.9915C43.7764 22.4891 44.4258 22.7687 45.1029 22.7687V39.5741C45.1029 39.8087 45.1925 40.0337 45.3521 40.1996C45.5117 40.3654 45.7282 40.4586 45.9539 40.4586H50.2089C50.4346 40.4586 50.651 40.3654 50.8106 40.1996C50.9702 40.0337 51.0599 39.8087 51.0599 39.5741V1.54075C51.0599 1.30616 50.9702 1.08119 50.8106 0.915313C50.651 0.749438 50.4346 0.65625 50.2089 0.65625ZM49.3579 38.6896H46.8049V21.8842C46.8049 21.6496 46.7152 21.4246 46.5556 21.2587C46.396 21.0929 46.1796 20.9997 45.9539 20.9997H45.1029C44.8772 20.9997 44.6607 20.9065 44.5011 20.7406C44.3415 20.5747 44.2519 20.3498 44.2519 20.1152V8.61672C44.2537 7.12832 44.7704 5.69024 45.7079 4.56506C46.6453 3.43988 47.9408 2.70267 49.3579 2.48804V38.6896Z" fill="#032B79"/>
<path d="M9.36097 1.54075H16.169V-5.26723H9.36097V1.54075ZM7.65898 1.54075V-5.26723H0.850998V1.54075H7.65898ZM7.65898 9.50122V16.3092H14.467V9.50122H7.65898ZM6.80798 9.50122H4.76837e-07V16.3092H6.80798V9.50122ZM6.80798 1.54075H13.616V-5.26723H6.80798V1.54075ZM5.10599 1.54075V-5.26723H-1.70199V1.54075H5.10599ZM5.10599 9.50122V16.3092H11.914V9.50122H5.10599ZM4.25499 9.50122H-2.55299V16.3092H4.25499V9.50122ZM4.25499 1.54075H11.063V-5.26723H4.25499V1.54075ZM2.55299 1.54075V-5.26723H-4.25499V1.54075H2.55299ZM2.55299 9.50122V16.3092H9.36097V9.50122H2.55299ZM1.702 9.50122H-5.10598V16.3092H1.702V9.50122ZM1.702 1.54075H8.50998V-5.26723H1.702V1.54075ZM0 1.54075V-5.26723H-6.80798V1.54075H0ZM0 14.8082H-6.80798L-6.80798 14.8162L0 14.8082ZM1.702 17.3104H8.50998V12.5664L4.05949 10.9237L1.702 17.3104ZM7.65898 17.3104L5.30148 10.9237L0.850998 12.5664V17.3104H7.65898ZM9.36097 14.8082L16.169 14.8162V14.8082H9.36097ZM1.702 11.2702V4.46223H-5.10598V11.2702H1.702ZM7.65898 11.2702H14.467V4.46223H7.65898V11.2702ZM50.2089 0.65625V-6.15173L50.201 -6.15173L50.2089 0.65625ZM42.5499 8.61672L35.7419 8.60946V8.61672H42.5499ZM45.1029 22.7687H51.9109V15.9607H45.1029V22.7687ZM49.3579 38.6896V45.4976H56.1658V38.6896H49.3579ZM46.8049 38.6896H39.9969V45.4976H46.8049V38.6896ZM44.2519 8.61672L37.4439 8.60857V8.61672H44.2519ZM49.3579 2.48804H56.1658V-5.42872L48.3383 -4.24317L49.3579 2.48804ZM16.169 10.3857V1.54075H2.55299V10.3857H16.169ZM9.36097 -5.26723H7.65898V8.34873H9.36097V-5.26723ZM0.850998 1.54075V9.50122H14.467V1.54075H0.850998ZM7.65898 2.69324H6.80798V16.3092H7.65898V2.69324ZM13.616 9.50122V1.54075H4.76837e-07V9.50122H13.616ZM6.80798 -5.26723H5.10599V8.34873H6.80798V-5.26723ZM-1.70199 1.54075V9.50122H11.914V1.54075H-1.70199ZM5.10599 2.69324H4.25499V16.3092H5.10599V2.69324ZM11.063 9.50122V1.54075H-2.55299V9.50122H11.063ZM4.25499 -5.26723H2.55299V8.34873H4.25499V-5.26723ZM-4.25499 1.54075V9.50122H9.36097V1.54075H-4.25499ZM2.55299 2.69324H1.702V16.3092H2.55299V2.69324ZM8.50998 9.50122V1.54075H-5.10598V9.50122H8.50998ZM1.702 -5.26723H0V8.34873H1.702V-5.26723ZM-6.80798 1.54075V14.8082H6.80798V1.54075H-6.80798ZM-6.80798 14.8162C-6.80575 16.7094 -6.24143 18.5787 -5.15993 20.1687L6.09848 12.5109C6.57055 13.2049 6.80704 14.0043 6.80798 14.8002L-6.80798 14.8162ZM-5.15993 20.1687C-4.0763 21.7619 -2.51402 23.0112 -0.655499 23.6972L4.05949 10.9237C4.92318 11.2425 5.62428 11.8137 6.09848 12.5109L-5.15993 20.1687ZM-5.10599 17.3104V37.8051H8.50998V17.3104H-5.10599ZM-5.10598 37.8051C-5.10598 40.2315 -4.18109 42.6088 -2.45623 44.4016L7.35573 34.9613C8.12303 35.7588 8.50998 36.7863 8.50998 37.8051H-5.10598ZM-2.45623 44.4016C-0.722768 46.2033 1.68562 47.2666 4.25499 47.2666V33.6506C5.47017 33.6506 6.57982 34.1548 7.35573 34.9613L-2.45623 44.4016ZM4.25499 47.2666H5.10599V33.6506H4.25499V47.2666ZM5.10599 47.2666C7.67535 47.2666 10.0837 46.2033 11.8172 44.4016L2.00525 34.9613C2.78115 34.1548 3.89081 33.6506 5.10599 33.6506V47.2666ZM11.8172 44.4016C13.5421 42.6088 14.467 40.2315 14.467 37.8051H0.850998C0.850998 36.7863 1.23794 35.7588 2.00525 34.9613L11.8172 44.4016ZM14.467 37.8051V17.3104H0.850998V37.8051H14.467ZM10.0165 23.6972C11.875 23.0112 13.4373 21.7619 14.5209 20.1687L3.26249 12.5109C3.73669 11.8137 4.43779 11.2425 5.30148 10.9237L10.0165 23.6972ZM14.5209 20.1687C15.6024 18.5787 16.1667 16.7094 16.1689 14.8162L2.553 14.8002C2.55393 14.0043 2.79042 13.2049 3.26249 12.5109L14.5209 20.1687ZM16.169 14.8082V10.3857H2.55299V14.8082H16.169ZM0.850998 14.8082C0.850998 13.3202 1.41725 11.8427 2.50375 10.7135L12.3157 20.1538C13.7214 18.6928 14.467 16.7654 14.467 14.8082H0.850998ZM2.50375 10.7135C3.59885 9.57526 5.14143 8.88472 6.80798 8.88472V22.5007C8.92593 22.5007 10.9014 21.6238 12.3157 20.1538L2.50375 10.7135ZM6.80798 8.88472C4.69003 8.88472 2.71455 9.76163 1.30026 11.2316L11.1122 20.6719C10.0171 21.8101 8.47453 22.5007 6.80798 22.5007V8.88472ZM1.30026 11.2316C-0.105423 12.6926 -0.850997 14.62 -0.850997 16.5772H12.765C12.765 18.0652 12.1987 19.5427 11.1122 20.6719L1.30026 11.2316ZM-0.850997 16.5772V37.8051H12.765V16.5772H-0.850997ZM-0.850997 37.8051C-0.850997 36.3171 -0.284741 34.8397 0.801754 33.7104L10.6137 43.1507C12.0194 41.6897 12.765 39.7623 12.765 37.8051H-0.850997ZM0.801754 33.7104C1.89686 32.5722 3.43943 31.8816 5.10599 31.8816V45.4976C7.22394 45.4976 9.19942 44.6207 10.6137 43.1507L0.801754 33.7104ZM5.10599 31.8816H4.25499V45.4976H5.10599V31.8816ZM4.25499 31.8816C5.92154 31.8816 7.46412 32.5722 8.55922 33.7104L-1.25274 43.1507C0.161554 44.6207 2.13704 45.4976 4.25499 45.4976V31.8816ZM8.55922 33.7104C9.64571 34.8397 10.212 36.3171 10.212 37.8051H-3.40399C-3.40399 39.7623 -2.65842 41.6897 -1.25274 43.1507L8.55922 33.7104ZM10.212 37.8051V16.5772H-3.40399V37.8051H10.212ZM10.212 16.5772C10.212 14.62 9.4664 12.6926 8.06072 11.2316L-1.75124 20.6719C-2.83773 19.5427 -3.40399 18.0652 -3.40399 16.5772H10.212ZM8.06072 11.2316C6.64643 9.76163 4.67094 8.88472 2.55299 8.88472V22.5007C0.886439 22.5007 -0.656136 21.8101 -1.75124 20.6719L8.06072 11.2316ZM2.55299 8.88472C4.21955 8.88472 5.76212 9.57526 6.85722 10.7135L-2.95473 20.1538C-1.54044 21.6238 0.435042 22.5007 2.55299 22.5007V8.88472ZM6.85722 10.7135C7.94372 11.8427 8.50998 13.3202 8.50998 14.8082H-5.10598C-5.10598 16.7654 -4.36041 18.6928 -2.95473 20.1538L6.85722 10.7135ZM8.50998 14.8082V11.2702H-5.10598V14.8082H8.50998ZM1.702 18.0782H7.65898V4.46223H1.702V18.0782ZM0.850998 11.2702V14.8082H14.467V11.2702H0.850998ZM50.201 -6.15173C46.2809 -6.14721 42.5784 -4.5243 39.8897 -1.72976L49.7016 7.71057C49.8846 7.52037 50.0756 7.46439 50.2167 7.46423L50.201 -6.15173ZM39.8897 -1.72976C37.2095 1.05589 35.746 4.77878 35.7419 8.60946L49.3579 8.62399C49.3583 8.23361 49.5101 7.90966 49.7016 7.71057L39.8897 -1.72976ZM35.7419 8.61672V20.1152H49.3579V8.61672H35.7419ZM35.7419 20.1152C35.7419 22.5415 36.6668 24.9189 38.3917 26.7117L48.2036 17.2713C48.9709 18.0688 49.3579 19.0963 49.3579 20.1152H35.7419ZM38.3917 26.7117C40.1251 28.5133 42.5335 29.5767 45.1029 29.5767V15.9607C46.3181 15.9607 47.4277 16.4649 48.2036 17.2713L38.3917 26.7117ZM38.2949 22.7687V39.5741H51.9109V22.7687H38.2949ZM38.2949 39.5741C38.2949 41.5313 39.0405 43.4587 40.4461 44.9197L50.2581 35.4794C51.3446 36.6087 51.9109 38.0861 51.9109 39.5741H38.2949ZM40.4461 44.9197C41.8604 46.3897 43.8359 47.2666 45.9539 47.2666V33.6506C47.6204 33.6506 49.163 34.3412 50.2581 35.4794L40.4461 44.9197ZM45.9539 47.2666H50.2089V33.6506H45.9539V47.2666ZM50.2089 47.2666C52.3268 47.2666 54.3023 46.3897 55.7166 44.9197L45.9046 35.4794C46.9997 34.3412 48.5423 33.6506 50.2089 33.6506V47.2666ZM55.7166 44.9197C57.1223 43.4587 57.8678 41.5313 57.8678 39.5741H44.2519C44.2519 38.0861 44.8181 36.6087 45.9046 35.4794L55.7166 44.9197ZM57.8678 39.5741V1.54075H44.2519V39.5741H57.8678ZM57.8678 1.54075C57.8678 -0.41642 57.1223 -2.34383 55.7166 -3.80485L45.9046 5.63548C44.8181 4.50621 44.2519 3.02875 44.2519 1.54075H57.8678ZM55.7166 -3.80485C54.3023 -5.27481 52.3268 -6.15173 50.2089 -6.15173V7.46423C48.5423 7.46423 46.9997 6.77368 45.9046 5.63548L55.7166 -3.80485ZM49.3579 31.8816H46.8049V45.4976H49.3579V31.8816ZM53.6128 38.6896V21.8842H39.9969V38.6896H53.6128ZM53.6128 21.8842C53.6128 19.927 52.8673 17.9996 51.4616 16.5386L41.6496 25.9789C40.5631 24.8496 39.9969 23.3722 39.9969 21.8842H53.6128ZM51.4616 16.5386C50.0473 15.0686 48.0718 14.1917 45.9539 14.1917V27.8077C44.2873 27.8077 42.7447 27.1171 41.6496 25.9789L51.4616 16.5386ZM45.9539 14.1917H45.1029V27.8077H45.9539V14.1917ZM45.1029 14.1917C46.7694 14.1917 48.312 14.8822 49.4071 16.0205L39.5951 25.4608C41.0094 26.9308 42.9849 27.8077 45.1029 27.8077V14.1917ZM49.4071 16.0205C50.4936 17.1497 51.0599 18.6272 51.0599 20.1152H37.4439C37.4439 22.0723 38.1895 23.9998 39.5951 25.4608L49.4071 16.0205ZM51.0599 20.1152V8.61672H37.4439V20.1152H51.0599ZM51.0598 8.62487C51.0598 8.6977 51.0364 8.80513 50.9384 8.9228L40.4773 0.207328C38.5044 2.57535 37.4475 5.55895 37.4439 8.60857L51.0598 8.62487ZM50.9384 8.9228C50.8354 9.04649 50.6462 9.17853 50.3774 9.21925L48.3383 -4.24317C45.2354 -3.77319 42.4552 -2.16673 40.4773 0.207328L50.9384 8.9228ZM42.5499 2.48804V38.6896H56.1658V2.48804H42.5499Z" fill="#032B79" mask="url(#path-3-inside-2_649_25525)"/>
<mask id="path-5-inside-3_649_25525" fill="white">
<path d="M46.805 5.96094H45.103V19.2284H46.805V5.96094Z"/>
</mask>
<path d="M46.805 5.96094H45.103V19.2284H46.805V5.96094Z" fill="#032B79"/>
<path d="M45.103 5.96094V0.854952H39.997V5.96094H45.103ZM46.805 5.96094H51.911V0.854952H46.805V5.96094ZM46.805 19.2284V24.3344H51.911V19.2284H46.805ZM45.103 19.2284H39.997V24.3344H45.103V19.2284ZM45.103 11.0669H46.805V0.854952H45.103V11.0669ZM41.699 5.96094V19.2284H51.911V5.96094H41.699ZM46.805 14.1224H45.103V24.3344H46.805V14.1224ZM50.209 19.2284V5.96094H39.997V19.2284H50.209Z" fill="#032B79" mask="url(#path-5-inside-3_649_25525)"/>
<mask id="path-7-inside-4_649_25525" fill="white">
<path d="M25.5271 11.2695C23.844 11.2695 22.1986 11.7883 20.7992 12.7602C19.3997 13.7321 18.309 15.1135 17.6649 16.7297C17.0208 18.3459 16.8523 20.1243 17.1806 21.8401C17.509 23.5558 18.3195 25.1319 19.5096 26.3688C20.6997 27.6058 22.2161 28.4482 23.8669 28.7895C25.5176 29.1308 27.2287 28.9556 28.7837 28.2862C30.3387 27.6167 31.6678 26.4831 32.6029 25.0285C33.5379 23.574 34.037 21.8639 34.037 20.1145C34.0346 17.7695 33.1372 15.5212 31.5418 13.863C29.9464 12.2048 27.7833 11.2721 25.5271 11.2695ZM25.5271 27.1905C24.1806 27.1905 22.8643 26.7755 21.7448 25.998C20.6252 25.2204 19.7526 24.1153 19.2373 22.8224C18.722 21.5294 18.5872 20.1067 18.8499 18.734C19.1126 17.3614 19.761 16.1006 20.7131 15.111C21.6652 14.1214 22.8783 13.4475 24.1989 13.1745C25.5195 12.9015 26.8884 13.0416 28.1324 13.5772C29.3764 14.1127 30.4396 15.0197 31.1877 16.1833C31.9358 17.3469 32.335 18.715 32.335 20.1145C32.333 21.9905 31.6151 23.7891 30.3388 25.1156C29.0625 26.4422 27.332 27.1884 25.5271 27.1905Z"/>
</mask>
<path d="M25.5271 11.2695C23.844 11.2695 22.1986 11.7883 20.7992 12.7602C19.3997 13.7321 18.309 15.1135 17.6649 16.7297C17.0208 18.3459 16.8523 20.1243 17.1806 21.8401C17.509 23.5558 18.3195 25.1319 19.5096 26.3688C20.6997 27.6058 22.2161 28.4482 23.8669 28.7895C25.5176 29.1308 27.2287 28.9556 28.7837 28.2862C30.3387 27.6167 31.6678 26.4831 32.6029 25.0285C33.5379 23.574 34.037 21.8639 34.037 20.1145C34.0346 17.7695 33.1372 15.5212 31.5418 13.863C29.9464 12.2048 27.7833 11.2721 25.5271 11.2695ZM25.5271 27.1905C24.1806 27.1905 22.8643 26.7755 21.7448 25.998C20.6252 25.2204 19.7526 24.1153 19.2373 22.8224C18.722 21.5294 18.5872 20.1067 18.8499 18.734C19.1126 17.3614 19.761 16.1006 20.7131 15.111C21.6652 14.1214 22.8783 13.4475 24.1989 13.1745C25.5195 12.9015 26.8884 13.0416 28.1324 13.5772C29.3764 14.1127 30.4396 15.0197 31.1877 16.1833C31.9358 17.3469 32.335 18.715 32.335 20.1145C32.333 21.9905 31.6151 23.7891 30.3388 25.1156C29.0625 26.4422 27.332 27.1884 25.5271 27.1905Z" fill="#032B79"/>
<path d="M25.5271 11.2695L25.5329 6.16355H25.5271V11.2695ZM34.037 20.1145H39.143L39.143 20.1091L34.037 20.1145ZM25.5271 27.1905V32.2965L25.533 32.2965L25.5271 27.1905ZM32.335 20.1145L37.441 20.12V20.1145H32.335ZM25.5271 6.16355C22.7892 6.16355 20.13 7.00839 17.8866 8.56635L23.7117 16.954C24.2673 16.5682 24.8987 16.3755 25.5271 16.3755V6.16355ZM17.8866 8.56635C15.6459 10.1225 13.9284 12.3132 12.9217 14.8394L22.4081 18.62C22.6895 17.9137 23.1536 17.3416 23.7117 16.954L17.8866 8.56635ZM12.9217 14.8394C11.9155 17.3642 11.655 20.1317 12.1656 22.7998L22.1956 20.8803C22.0495 20.1169 22.1261 19.3276 22.4081 18.62L12.9217 14.8394ZM12.1656 22.7998C12.6764 25.4687 13.9416 27.9461 15.8301 29.909L23.1891 22.8287C22.6973 22.3176 22.3415 21.643 22.1956 20.8803L12.1656 22.7998ZM15.8301 29.909C17.7207 31.874 20.1538 33.2358 22.8331 33.7898L24.9006 23.7893C24.2784 23.6606 23.6788 23.3377 23.1891 22.8287L15.8301 29.909ZM22.8331 33.7898C25.514 34.344 28.2905 34.0576 30.8028 32.976L26.7646 23.5964C26.1669 23.8537 25.5213 23.9176 24.9006 23.7893L22.8331 33.7898ZM30.8028 32.976C33.3125 31.8955 35.4256 30.0799 36.8979 27.7896L28.3078 22.2674C27.91 22.8862 27.3649 23.3379 26.7646 23.5964L30.8028 32.976ZM36.8979 27.7896C38.3689 25.5014 39.143 22.8308 39.143 20.1145H28.9311C28.9311 20.8969 28.7069 21.6465 28.3078 22.2674L36.8979 27.7896ZM39.143 20.1091C39.1392 16.4739 37.7499 12.9511 35.2213 10.3229L27.8623 17.4031C28.5245 18.0914 28.9299 19.065 28.9311 20.1199L39.143 20.1091ZM35.2213 10.3229C32.6862 7.68804 29.2062 6.16774 25.5329 6.16355L25.5212 16.3755C26.3603 16.3765 27.2066 16.7216 27.8623 17.4031L35.2213 10.3229ZM25.5271 22.0845C25.2353 22.0845 24.933 21.9956 24.6573 21.8041L18.8322 30.1918C20.7957 31.5554 23.1258 32.2965 25.5271 32.2965V22.0845ZM24.6573 21.8041C24.379 21.6109 24.1331 21.3151 23.9805 20.9321L14.4941 24.7126C15.372 26.9156 16.8714 28.83 18.8322 30.1918L24.6573 21.8041ZM23.9805 20.9321C23.8273 20.5477 23.7844 20.114 23.8649 19.6938L13.8349 17.7743C13.39 20.0993 13.6168 22.5111 14.4941 24.7126L23.9805 20.9321ZM23.8649 19.6938C23.9452 19.2743 24.1389 18.9149 24.3926 18.6512L17.0336 11.5709C15.3831 13.2864 14.28 15.4486 13.8349 17.7743L23.8649 19.6938ZM24.3926 18.6512C24.6443 18.3896 24.9406 18.2351 25.2327 18.1747L23.1651 8.17425C20.816 8.65992 18.6862 9.85331 17.0336 11.5709L24.3926 18.6512ZM25.2327 18.1747C25.5232 18.1147 25.8266 18.1435 26.1133 18.267L30.1514 8.88732C27.9502 7.93965 25.5159 7.68825 23.1651 8.17425L25.2327 18.1747ZM26.1133 18.267C26.4025 18.3915 26.6818 18.6165 26.8927 18.9444L35.4827 13.4222C34.1974 11.4228 32.3502 9.83393 30.1514 8.88732L26.1133 18.267ZM26.8927 18.9444C27.1048 19.2744 27.2291 19.682 27.2291 20.1145H37.441C37.441 17.748 36.7668 15.4195 35.4827 13.4222L26.8927 18.9444ZM27.2291 20.109C27.2284 20.6949 27.0024 21.2189 26.6593 21.5755L34.0183 28.6558C36.2278 26.3593 37.4376 23.2861 37.441 20.12L27.2291 20.109ZM26.6593 21.5755C26.3226 21.9255 25.909 22.084 25.5211 22.0845L25.533 32.2965C28.7551 32.2927 31.8024 30.9589 34.0183 28.6558L26.6593 21.5755Z" fill="#032B79" mask="url(#path-7-inside-4_649_25525)"/>
</svg>
